<svg width="24" height="24" viewBox="0 0 24 24" fill="none" xmlns="http://www.w3.org/2000/svg">
<path d="M18 18.8578H17.24C16.44 18.8578 15.68 19.1678 15.12 19.7278L13.41 21.4178C12.63 22.1878 11.36 22.1878 10.58 21.4178L8.87 19.7278C8.31 19.1678 7.54 18.8578 6.75 18.8578H6C4.34 18.8578 3 17.5278 3 15.8878V4.97778C3 3.33778 4.34 2.00781 6 2.00781H18C19.66 2.00781 21 3.33778 21 4.97778V15.8878C21 17.5178 19.66 18.8578 18 18.8578Z" stroke="#292D32" stroke-width="1.125" stroke-miterlimit="10" stroke-linecap="round" stroke-linejoin="round"/>
<path d="M7 9.15881C7 8.22881 7.76 7.46875 8.69 7.46875C9.62 7.46875 10.38 8.22881 10.38 9.15881C10.38 11.0388 7.71 11.2388 7.12 13.0288C7 13.3988 7.31 13.7688 7.7 13.7688H10.38" stroke="#292D32" stroke-width="1.125" stroke-linecap="round" stroke-linejoin="round"/>
<path d="M16.0398 13.7608V8.05088C16.0398 7.79088 15.8698 7.56083 15.6198 7.49083C15.3698 7.42083 15.0998 7.52083 14.9598 7.74083C14.2398 8.90082 13.4598 10.2208 12.7798 11.3808C12.6698 11.5708 12.6698 11.8208 12.7798 12.0108C12.8898 12.2008 13.0998 12.3208 13.3298 12.3208H16.9998" stroke="#292D32" stroke-width="1.125" stroke-linecap="round" stroke-linejoin="round"/>
</svg>
