<svg width="32" height="32" viewBox="0 0 32 32" fill="none" xmlns="http://www.w3.org/2000/svg">
<path d="M16.0003 24.2682C18.9458 24.2682 21.3337 21.8804 21.3337 18.9349C21.3337 15.9894 18.9458 13.6016 16.0003 13.6016C13.0548 13.6016 10.667 15.9894 10.667 18.9349C10.667 21.8804 13.0548 24.2682 16.0003 24.2682Z" stroke="#292D32" stroke-width="1.5" stroke-miterlimit="10" stroke-linecap="round" stroke-linejoin="round"/>
<path d="M16.3337 17.2656V18.5056C16.3337 18.9723 16.0937 19.4123 15.6803 19.6523L14.667 20.2656" stroke="#292D32" stroke-width="1.5" stroke-miterlimit="10" stroke-linecap="round" stroke-linejoin="round"/>
<path d="M10.6668 29.3333H21.3334C26.6934 29.3333 27.6534 27.1867 27.9334 24.5733L28.9334 13.9067C29.2934 10.6533 28.3601 8 22.6668 8H9.33343C3.64009 8 2.70676 10.6533 3.06676 13.9067L4.06676 24.5733C4.34676 27.1867 5.30676 29.3333 10.6668 29.3333Z" stroke="#292D32" stroke-width="1.5" stroke-miterlimit="10" stroke-linecap="round" stroke-linejoin="round"/>
<path d="M10.667 8.0013V6.93463C10.667 4.57464 10.667 2.66797 14.9337 2.66797H17.067C21.3337 2.66797 21.3337 4.57464 21.3337 6.93463V8.0013" stroke="#292D32" stroke-width="1.5" stroke-miterlimit="10" stroke-linecap="round" stroke-linejoin="round"/>
<path d="M28.8667 14.668C26.56 16.348 24 17.5213 21.3467 18.188" stroke="#292D32" stroke-width="1.5" stroke-miterlimit="10" stroke-linecap="round" stroke-linejoin="round"/>
<path d="M3.49316 15.0273C5.71983 16.5473 8.1465 17.6273 10.6665 18.2407" stroke="#292D32" stroke-width="1.5" stroke-miterlimit="10" stroke-linecap="round" stroke-linejoin="round"/>
</svg>
