<svg width="77" height="32" viewBox="0 0 77 32" fill="none" xmlns="http://www.w3.org/2000/svg">
<path d="M37.1563 16.5893C34.7333 16.5893 32.2246 18.4903 32.2246 21.6758C32.2246 24.5149 34.5669 26.7376 37.5571 26.7376C38.7245 26.7376 39.6448 26.5485 40.4516 26.1384V24.537C39.6624 24.9496 38.8027 25.151 37.8219 25.151C35.414 25.151 34.2341 23.3974 34.166 22.1547L34.161 22.0785H40.4667L41.4298 21.2067V20.2439C41.4298 18.4731 39.9322 16.5893 37.1563 16.5893ZM39.5212 20.5656L39.5061 20.6197H34.2845L34.3022 20.5337C34.5618 19.2099 35.8931 18.1342 37.2697 18.1342C38.6463 18.1342 39.549 19.2467 39.549 20.2881C39.549 20.3765 39.549 20.4698 39.5237 20.5656" fill="black"/>
<path d="M48.5043 16.5893C46.878 16.5893 46.1746 17.0069 45.4434 17.7805L45.3274 17.9008L45.2291 16.8276H43.5928V26.4994H45.4661V20.266C45.4661 19.2394 46.2502 18.1342 47.9672 18.1342C49.6842 18.1342 50.3801 19.2345 50.3801 20.266V26.4994H52.2534V20.0695C52.2534 17.9893 50.7457 16.5893 48.5017 16.5893" fill="black"/>
<path d="M52.8594 30.385L54.0242 31.5C55.416 31.1635 56.8405 29.6383 56.8405 27.6367V16.8302H54.9647V27.4844C54.9647 29.0391 54.2385 30.0387 52.8594 30.385Z" fill="black"/>
<path d="M66.6532 24.0384V20.072C66.6532 17.9254 65.1985 16.5893 62.8562 16.5893C61.6006 16.5893 60.4937 16.8669 59.6491 17.3949L60.0122 18.871C60.7685 18.4092 61.7821 18.1342 62.7452 18.1342C64.0361 18.1342 64.7774 18.7457 64.7774 19.8116V20.5067L62.1729 20.7523C60.6979 20.8972 59.1045 22.081 59.1045 23.7364C59.1045 25.6889 60.7383 26.7401 62.2788 26.7401C63.4764 26.7401 64.4068 26.3275 65.0447 25.5121L65.1304 25.404L65.1758 25.5317C65.3901 26.1212 65.9145 26.578 66.5499 26.7303L67.7122 25.598C67.0566 25.4236 66.6532 24.8391 66.6532 24.0384ZM64.7799 22.9308C64.7799 24.2153 63.484 25.2149 62.3696 25.2149C61.5552 25.2149 60.8921 24.5886 60.8921 23.8199C60.8921 23.0511 61.4493 22.2775 62.5183 22.1866L64.7799 21.9828V22.9308Z" fill="black"/>
<path d="M71.8162 24.9132L71.849 24.864C72.5146 23.8301 73.1046 22.8869 73.6492 21.9831L76.5991 17.1227V16.8255H69.4058V18.3261H73.7677L73.8534 18.4096L73.8231 18.4587C73.1525 19.5001 72.5625 20.4407 72.0229 21.3396L69.0957 26.2001V26.4973H77V24.9967H71.9044L71.8187 24.9107L71.8162 24.9132Z" fill="black"/>
<path d="M75.638 8.99808V1.06758H73.7646V9.25842C73.7646 11.1815 75.169 11.7464 75.6682 11.8864L76.9213 10.6657C76.2683 10.4864 75.638 9.84541 75.638 8.99808Z" fill="black"/>
<path d="M38.4313 10.103V4.71207H36.558V9.90656C36.558 10.9381 35.9226 12.0384 34.1476 12.0384H32.2012V13.5808H34.6821C36.9261 13.5808 38.4338 12.1808 38.4338 10.1006" fill="black"/>
<path d="M43.9837 11.8959H67.946C70.19 11.8959 71.6977 10.496 71.6977 8.41574V4.71697H69.8219V8.21926C69.8219 9.25079 69.189 10.3535 67.4115 10.3535H60.836V9.22131C60.836 6.75547 58.945 4.13489 55.4379 4.13489C54.2227 4.13489 53.1965 4.3633 52.2964 4.83731L52.6393 6.41654C53.4562 5.9327 54.258 5.72394 55.3043 5.72394C57.0667 5.72394 58.94 6.94949 58.94 9.22131V10.3535H44.5182C42.7407 10.3535 42.1053 9.25324 42.1053 8.21926V1.01328H40.2295V8.41574C40.2295 10.496 41.7372 11.8959 43.9812 11.8959" fill="black"/>
<path d="M55.922 12.974L54.6152 14.247L55.922 15.52L57.2289 14.247L55.922 12.974Z" fill="black"/>
<path d="M70.7631 0.981874L69.4561 2.25463L70.7626 3.52783L72.0697 2.25508L70.7631 0.981874Z" fill="black"/>
<path d="M37.382 0.987334L36.0752 2.26031L37.382 3.53329L38.6888 2.26031L37.382 0.987334Z" fill="black"/>
<path d="M4.29376 21.7297C6.82009 24.1882 9.80026 25.932 12.972 26.9635L14.089 25.8755C11.9938 25.1436 10.0247 23.9598 8.34547 22.3241C5.44851 19.5021 3.93574 15.8476 3.79959 12.1512L0 15.8525C1.05642 17.9769 2.48347 19.9688 4.29376 21.7322" fill="#D0202E"/>
<path d="M21.794 22.8475C24.3178 20.3866 26.1079 17.4835 27.1668 14.3939L26.0499 13.3058C25.2986 15.3468 24.0858 17.265 22.4041 18.9007C19.5072 21.7226 15.7555 23.1963 11.9609 23.3289L15.758 27.0301C17.9389 26.001 19.9812 24.6109 21.7915 22.8475" fill="#EBAA3D"/>
<path d="M22.9407 5.80002C20.4144 3.33909 17.4342 1.59777 14.2624 0.566236L13.1455 1.65425C15.2407 2.38615 17.2098 3.5675 18.889 5.20566C21.786 8.02518 23.2987 11.6822 23.4349 15.3761L27.2345 11.6773C26.1781 9.55528 24.751 7.56345 22.9407 5.80002Z" fill="#D0202E"/>
<path d="M5.44123 4.6826C2.9149 7.14353 1.1273 10.0466 0.0683594 13.1362L1.18529 14.2242C1.93664 12.1808 3.14938 10.2651 4.82856 8.62697C7.72552 5.805 11.4772 4.33139 15.2717 4.19876L11.4747 0.49999C9.29376 1.52906 7.25152 2.92163 5.44123 4.6826Z" fill="#EBAA3D"/>
</svg>
