<svg width="40" height="40" viewBox="0 0 40 40" fill="none" xmlns="http://www.w3.org/2000/svg">
<path d="M33.3334 16.0013C33.3334 9.33464 30.6667 6.66797 24.0001 6.66797H16.0001C9.33342 6.66797 6.66675 9.33464 6.66675 16.0013V24.0013C6.66675 30.668 9.33342 33.3346 16.0001 33.3346" stroke="#292D32" stroke-width="2.5" stroke-linecap="round" stroke-linejoin="round"/>
<path d="M27.2501 13.3346C26.3334 12.168 24.8001 11.668 22.5001 11.668H17.5001C13.3334 11.668 11.6667 13.3346 11.6667 17.5013V22.5013C11.6667 24.8013 12.1667 26.3346 13.3167 27.2513" stroke="#292D32" stroke-width="2.5" stroke-linecap="round" stroke-linejoin="round"/>
<path d="M13.3501 6.66536V3.33203" stroke="#292D32" stroke-width="2.5" stroke-linecap="round" stroke-linejoin="round"/>
<path d="M20 6.66536V3.33203" stroke="#292D32" stroke-width="2.5" stroke-linecap="round" stroke-linejoin="round"/>
<path d="M26.6667 6.66536V3.33203" stroke="#292D32" stroke-width="2.5" stroke-linecap="round" stroke-linejoin="round"/>
<path d="M33.3333 13.332H36.6666" stroke="#292D32" stroke-width="2.5" stroke-linecap="round" stroke-linejoin="round"/>
<path d="M13.3501 33.332V36.6654" stroke="#292D32" stroke-width="2.5" stroke-linecap="round" stroke-linejoin="round"/>
<path d="M3.33325 13.332H6.66659" stroke="#292D32" stroke-width="2.5" stroke-linecap="round" stroke-linejoin="round"/>
<path d="M3.33325 20H6.66659" stroke="#292D32" stroke-width="2.5" stroke-linecap="round" stroke-linejoin="round"/>
<path d="M3.33325 26.668H6.66659" stroke="#292D32" stroke-width="2.5" stroke-linecap="round" stroke-linejoin="round"/>
<path d="M27.8502 30.9836C29.3137 30.9836 30.5002 29.7971 30.5002 28.3336C30.5002 26.87 29.3137 25.6836 27.8502 25.6836C26.3866 25.6836 25.2002 26.87 25.2002 28.3336C25.2002 29.7971 26.3866 30.9836 27.8502 30.9836Z" stroke="#292D32" stroke-width="2.5" stroke-miterlimit="10" stroke-linecap="round" stroke-linejoin="round"/>
<path d="M19.0166 29.1025V27.5525C19.0166 26.6358 19.7666 25.8858 20.6833 25.8858C22.2833 25.8858 22.9333 24.7525 22.1333 23.3692C21.6666 22.5692 21.9499 21.5358 22.7499 21.0858L24.2666 20.2025C24.9666 19.7858 25.8666 20.0358 26.2833 20.7358L26.3833 20.9025C27.1833 22.2858 28.4833 22.2858 29.2833 20.9025L29.3833 20.7358C29.7999 20.0358 30.6999 19.8025 31.3999 20.2025L32.9166 21.0858C33.7166 21.5525 33.9999 22.5692 33.5333 23.3692C32.7333 24.7525 33.3833 25.8858 34.9833 25.8858C35.8999 25.8858 36.6499 26.6358 36.6499 27.5525V29.1025C36.6499 30.0192 35.8999 30.7692 34.9833 30.7692C33.3833 30.7692 32.7333 31.9025 33.5333 33.2858C33.9999 34.0858 33.7166 35.1192 32.9166 35.5692L31.3999 36.4525C30.6999 36.8692 29.7999 36.6192 29.3833 35.9192L29.2833 35.7525C28.4833 34.3692 27.1833 34.3692 26.3833 35.7525L26.2833 35.9192C25.8666 36.6192 24.9666 36.8525 24.2666 36.4525L22.7499 35.5692C21.9499 35.1025 21.6666 34.0858 22.1333 33.2858C22.9333 31.9025 22.2833 30.7692 20.6833 30.7692C19.7666 30.7858 19.0166 30.0358 19.0166 29.1025Z" stroke="#292D32" stroke-width="2.5" stroke-miterlimit="10" stroke-linecap="round" stroke-linejoin="round"/>
</svg>
