<svg width="24" height="24" viewBox="0 0 24 24" fill="none" xmlns="http://www.w3.org/2000/svg">
<g clip-path="url(#clip0_652_8455)">
<rect width="24" height="24" rx="12" fill="white"/>
<mask id="mask0_652_8455" style="mask-type:luminance" maskUnits="userSpaceOnUse" x="-10" y="-5" width="44" height="33">
<rect x="-9.16797" y="-4.74583" width="42.3333" height="31.75" fill="white"/>
</mask>
<g mask="url(#mask0_652_8455)">
<path fill-rule="evenodd" clip-rule="evenodd" d="M-9.16797 -4.74583H33.1654V27.0042H-9.16797V-4.74583Z" fill="#E31D1C"/>
<path d="M33.166 24.358V27.0045H-9.16797V24.358H33.166ZM33.166 21.7125H-9.16797V19.067H33.166V21.7125ZM33.166 16.4205H-9.16797V13.775H33.166V16.4205ZM33.166 11.1295H-9.16797V8.48301H33.166V11.1295ZM33.166 5.8375H-9.16797V3.19199H33.166V5.8375ZM33.166 0.545509H-9.16797V-2.1H33.166V0.545509Z" fill="#F7FCFF"/>
<rect x="-9.16797" y="-4.74583" width="23.8125" height="18.5208" fill="#2E42A5"/>
<path d="M11.499 -1.83433H12.8857L11.7969 -0.732769L12.2178 1.00551L10.8613 0.0289497L9.7373 0.812153H10.2402L9.15039 1.91372L9.52539 3.45766H10.3145L10.8594 2.03969L11.499 3.45766H12.8857L11.7969 4.55922L12.2178 6.2975L10.8613 5.32094L9.73926 6.10317H10.2402L9.15039 7.20473L9.52539 8.74965H10.3145L10.8594 7.33071L11.499 8.74965H12.8857L11.7969 9.85122L12.2178 11.5885L10.8613 10.612L9.45996 11.5885L9.93262 9.85122L8.6875 8.74965H9.30371L8.21582 7.96645L7.09082 8.74965H7.59473L6.50488 9.85122L6.92676 11.5885L5.57031 10.612L4.16797 11.5885L4.6416 9.85122L3.39551 8.74965H4.01172L2.92383 7.96645L1.7998 8.74965H2.30273L1.21289 9.85122L1.63477 11.5885L0.27832 10.612L-1.12402 11.5885L-0.650391 9.85122L-1.89551 8.74965H-1.2793L-2.36719 7.96645L-3.49219 8.74965H-2.98926L-4.07812 9.85122L-3.65723 11.5885L-5.01367 10.612L-6.41504 11.5885L-5.94238 9.85122L-7.1875 8.74965H-5.56055L-5.01562 7.33071L-4.37598 8.74965H-3.7168L-3.2959 7.20473L-4.54199 6.10317H-3.92676L-5.01367 5.32094L-6.41504 6.2975L-5.94238 4.55922L-7.1875 3.45766H-5.56055L-5.01562 2.03969L-4.37598 3.45766H-3.7168L-3.2959 1.91372L-4.54199 0.812153H-3.92578L-5.01367 0.0289497L-6.41602 1.00551L-5.94238 -0.732769L-7.1875 -1.83433H-5.56055L-5.01562 -3.2523L-4.37598 -1.83433H-2.98926L-4.0791 -0.732769L-3.7041 0.812153H-2.91504L-2.36914 -0.606792L-1.72949 0.812153H-1.07129L-0.650391 -0.732769L-1.89551 -1.83433H-0.269531L0.276367 -3.2523L0.916016 -1.83433H2.30273L1.21289 -0.732769L1.58789 0.812153H2.37695L2.92188 -0.606792L3.56152 0.812153H4.2207L4.6416 -0.732769L3.39551 -1.83433H5.02246L5.56836 -3.2523L6.20801 -1.83433H7.59473L6.50488 -0.732769L6.87988 0.812153H7.66797L8.21387 -0.606792L8.85352 0.812153H9.5127L9.93262 -0.732769L8.6875 -1.83433H10.3145L10.8594 -3.2523L11.499 -1.83433ZM4.44727 6.10317H4.94824L3.85938 7.20473L4.2334 8.74965H5.02246L5.56836 7.33071L6.20801 8.74965H6.86621L7.28711 7.20473L6.04199 6.10317H6.65723L5.57031 5.32094L4.44727 6.10317ZM-0.844727 6.10317H-0.342773L-1.43262 7.20473L-1.05762 8.74965H-0.269531L0.276367 7.33071L0.916016 8.74965H1.5752L1.99512 7.20473L0.75 6.10317H1.36523L0.27832 5.32094L-0.844727 6.10317ZM7.09082 3.45766H7.59473L6.50488 4.55922L6.87988 6.10317H7.66797L8.21387 4.6852L8.85352 6.10317H9.5127L9.93262 4.55922L8.6875 3.45766H9.30371L8.21582 2.67446L7.09082 3.45766ZM-3.49219 3.45766H-2.98926L-4.07812 4.55922L-3.7041 6.10317H-2.91504L-2.36914 4.6852L-1.72949 6.10317H-1.07129L-0.650391 4.55922L-1.89551 3.45766H-1.2793L-2.36719 2.67446L-3.49219 3.45766ZM1.7998 3.45766H2.30273L1.21289 4.55922L1.58789 6.10317H2.37695L2.92188 4.6852L3.56152 6.10317H4.2207L4.6416 4.55922L3.39551 3.45766H4.01172L2.92383 2.67446L1.7998 3.45766ZM-0.84668 0.812153H-0.342773L-1.43262 1.91372L-1.05762 3.45766H-0.269531L0.276367 2.03969L0.916016 3.45766H1.5752L1.99512 1.91372L0.75 0.812153H1.36621L0.27832 0.0289497L-0.84668 0.812153ZM4.44531 0.812153H4.94824L3.85938 1.91372L4.2334 3.45766H5.02246L5.56836 2.03969L6.20801 3.45766H6.86621L7.28711 1.91372L6.04199 0.812153H6.6582L5.57031 0.0289497L4.44531 0.812153Z" fill="#F7FCFF"/>
</g>
</g>
<defs>
<clipPath id="clip0_652_8455">
<rect width="24" height="24" rx="12" fill="white"/>
</clipPath>
</defs>
</svg>
