<svg width="32" height="32" viewBox="0 0 32 32" fill="none" xmlns="http://www.w3.org/2000/svg">
<path d="M16.0003 29.3346C23.3641 29.3346 29.3337 23.3651 29.3337 16.0013C29.3337 8.63751 23.3641 2.66797 16.0003 2.66797C8.63653 2.66797 2.66699 8.63751 2.66699 16.0013C2.66699 23.3651 8.63653 29.3346 16.0003 29.3346Z" stroke="#292D32" stroke-width="1.5" stroke-linecap="round" stroke-linejoin="round"/>
<path d="M10.6665 4H11.9998C9.3998 11.7867 9.3998 20.2133 11.9998 28H10.6665" stroke="#292D32" stroke-width="1.5" stroke-linecap="round" stroke-linejoin="round"/>
<path d="M20 4C22.6 11.7867 22.6 20.2133 20 28" stroke="#292D32" stroke-width="1.5" stroke-linecap="round" stroke-linejoin="round"/>
<path d="M4 21.3333V20C11.7867 22.6 20.2133 22.6 28 20V21.3333" stroke="#292D32" stroke-width="1.5" stroke-linecap="round" stroke-linejoin="round"/>
<path d="M4 12.0008C11.7867 9.40078 20.2133 9.40078 28 12.0008" stroke="#292D32" stroke-width="1.5" stroke-linecap="round" stroke-linejoin="round"/>
</svg>
