<svg width="24" height="24" viewBox="0 0 24 24" fill="none" xmlns="http://www.w3.org/2000/svg">
<path d="M21 17V6.84C21 5.49587 21 4.82381 20.7384 4.31042C20.5083 3.85883 20.1412 3.49168 19.6896 3.26158C19.1762 3 18.5041 3 17.16 3H6.84C5.49587 3 4.82381 3 4.31042 3.26158C3.85883 3.49168 3.49168 3.85883 3.26158 4.31042C3 4.82381 3 5.49587 3 6.84V17M4.55556 21H19.4444C20.521 21 21.0593 21 21.4861 20.8304C22.1002 20.5865 22.5865 20.1002 22.8304 19.4861C23 19.0593 23 18.521 23 17.4444V17.4444C23 17.3099 23 17.2426 22.9788 17.1892C22.9483 17.1125 22.8875 17.0517 22.8108 17.0212C22.7574 17 22.6901 17 22.5556 17H1.44444C1.30988 17 1.24259 17 1.18924 17.0212C1.11248 17.0517 1.05169 17.1125 1.0212 17.1892C1 17.2426 1 17.3099 1 17.4444V17.4444C1 18.521 1 19.0593 1.16957 19.4861C1.41352 20.1002 1.89984 20.5865 2.51391 20.8304C2.94073 21 3.479 21 4.55556 21Z" stroke="black" stroke-width="0.9" stroke-linecap="round" stroke-linejoin="round"/>
</svg>
