<svg width="56" height="58" viewBox="0 0 56 58" fill="none" xmlns="http://www.w3.org/2000/svg">
<path d="M24.9609 53.8212C24.9609 53.8212 44.6015 55.0004 44.6278 54.9742C44.7067 54.9218 44.7856 54.8432 44.8645 54.7908C54.6453 47.0078 58.3788 33.8791 54.3298 22.0606C53.9617 20.96 53.6199 19.9118 53.357 18.916C53.357 18.916 54.5139 43.9681 24.9609 53.8212Z" fill="url(#paint0_linear_41_2375)"/>
<path d="M2.03266 45.6987C2.03266 45.6987 2.16414 45.8559 2.21673 45.9345C9.99935 55.709 23.1194 59.4825 34.9248 55.4208C35.8187 55.1063 36.6864 54.818 37.5277 54.5822H37.4225C35.9238 54.5036 34.3463 54.2677 32.9002 53.9795C32.9002 53.9795 32.8476 53.9795 32.8213 53.9795C31.4015 53.7174 29.7451 53.3505 27.9572 52.7478C19.859 50.0749 8.94763 43.2878 3.18954 26.0187C3.18954 26.0187 2.00637 45.6724 2.03266 45.7249" fill="url(#paint1_linear_41_2375)"/>
<mask id="mask0_41_2375" style="mask-type:luminance" maskUnits="userSpaceOnUse" x="4" y="29" width="1" height="1">
<path d="M4.24023 29.1082C4.24023 29.1082 4.24026 29.0316 4.26578 29.0061C4.26578 29.0061 4.26576 29.0316 4.24023 29.1082Z" fill="white"/>
</mask>
<g mask="url(#mask0_41_2375)">
<path d="M4.26616 29.0345L4.20996 29.1196L4.29515 29.1758L4.35135 29.0907L4.26616 29.0345Z" fill="url(#paint2_linear_41_2375)"/>
</g>
<path d="M11.3139 3.03821C11.3139 3.03821 11.1562 3.16921 11.0773 3.22162C1.29642 11.0045 -2.43715 24.1333 1.61191 35.9518C1.92742 36.8427 2.19034 37.7075 2.42698 38.5461V38.4675C2.50586 36.7641 2.79505 34.9822 3.13685 33.4099C3.34719 32.2306 3.68906 30.9204 4.10975 29.5053C4.13604 29.4005 4.16233 29.3219 4.18862 29.2433C4.18862 29.2171 4.18857 29.1646 4.21486 29.1384C4.21486 29.1122 4.21488 29.0598 4.24118 29.0336C6.89673 20.9363 13.6802 9.98254 30.9545 4.21743C30.9545 4.21743 11.866 3.0644 11.2876 3.0644" fill="url(#paint3_linear_41_2375)"/>
<path d="M21.0151 2.59142C20.1211 2.90588 19.2535 3.19411 18.4121 3.42996H18.5172C20.0685 3.50857 21.7249 3.77064 23.1973 4.05889C23.1973 4.05889 23.1973 4.05889 23.2236 4.05889C24.6171 4.32094 26.1947 4.68781 27.9037 5.23811C27.9037 5.23811 27.93 5.23811 27.9563 5.23811C35.5548 7.72759 45.6775 13.8858 51.646 28.9799C51.646 28.9537 51.6722 28.8751 51.6985 28.7702C52.2244 27.1455 52.5662 25.6519 52.8292 24.3154C52.8292 24.3154 52.8292 24.3154 52.8292 24.2892C53.0658 23.1624 53.2498 21.9307 53.3813 20.7253L53.8809 12.2873C53.8809 12.2873 53.7494 12.1301 53.6968 12.0514C48.0176 4.89746 39.4462 0.966675 30.6382 0.966675C27.4042 0.966675 24.1439 1.4908 20.9887 2.59142" fill="url(#paint4_linear_41_2375)"/>
<g style="mix-blend-mode:multiply" opacity="0.6">
<path d="M51.7482 28.7949C51.7482 28.7949 51.8008 28.5853 51.8533 28.4542C52.0111 27.9563 52.2215 27.1702 52.4844 26.1744C52.6422 25.5193 52.7736 24.9166 52.8788 24.3401C52.8788 24.3401 52.8788 24.34 52.8788 24.3138C53.1154 23.187 53.2994 21.9554 53.4309 20.7499L53.6413 17.2123C53.2732 18.2867 51.6693 22.925 50.4336 26.0958C50.8806 27.0392 51.3012 28.0088 51.6956 29.0046C51.6956 29.0046 51.6956 28.9259 51.7482 28.8211C51.7482 28.8211 51.7482 28.8211 51.7482 28.7687" fill="#D20921"/>
</g>
<g style="mix-blend-mode:multiply" opacity="0.6">
<path d="M4.21241 29.2142C4.21241 29.2142 4.15988 29.4238 4.1073 29.5548C3.94954 30.0527 3.73914 30.8389 3.47622 31.8347C3.31846 32.4898 3.18702 33.0925 3.08184 33.669C3.08184 33.669 3.08184 33.669 3.08184 33.6952C2.84521 34.822 2.66119 36.0537 2.52972 37.2591L2.31934 40.7968C2.68743 39.7224 4.29129 35.0841 5.52704 31.9133C5.08007 30.9699 4.65944 30.0003 4.26505 29.0045C4.26505 29.0045 4.26499 29.0831 4.21241 29.1879C4.21241 29.1879 4.21241 29.1879 4.21241 29.2404" fill="#D20921"/>
</g>
<g style="mix-blend-mode:multiply" opacity="0.6">
<path d="M27.7691 5.20994C27.7691 5.20994 27.5587 5.15749 27.4273 5.10507C26.9277 4.94779 26.1389 4.73812 25.166 4.47599C24.5087 4.31872 23.904 4.18763 23.3256 4.08278C23.3256 4.08278 23.3256 4.08278 23.2993 4.08278C22.1687 3.84687 20.9592 3.6634 19.7498 3.53234L16.2266 3.32263C17.3046 3.68961 21.9321 5.28857 25.0872 6.54677C26.0337 6.10116 26.9803 5.68177 28.0057 5.28858C28.0057 5.28858 27.9531 5.28857 27.8216 5.23614C27.8216 5.23614 27.8217 5.23614 27.7691 5.23614" fill="#FB9912"/>
</g>
<g style="mix-blend-mode:multiply" opacity="0.6">
<path d="M28.1917 52.7993C28.1917 52.7993 28.4021 52.8517 28.5335 52.9041C29.0331 53.0614 29.8219 53.2711 30.7947 53.5332C31.452 53.6905 32.0567 53.8215 32.6352 53.9264C32.6352 53.9264 32.6352 53.9264 32.6615 53.9264C33.7921 54.1623 35.0015 54.3458 36.211 54.4769L39.7342 54.6865C38.6562 54.3196 34.0287 52.7206 30.8736 51.4624C29.9271 51.908 28.9805 52.3274 27.9551 52.7206C27.9551 52.7206 28.0077 52.7206 28.1391 52.773C28.1391 52.773 28.1391 52.773 28.1917 52.773" fill="#FB9912"/>
</g>
<defs>
<linearGradient id="paint0_linear_41_2375" x1="52.463" y1="23.4233" x2="37.607" y2="52.0536" gradientUnits="userSpaceOnUse">
<stop stop-color="#FFD400"/>
<stop offset="1" stop-color="#F7771D"/>
</linearGradient>
<linearGradient id="paint1_linear_41_2375" x1="29.9029" y1="55.2897" x2="1.72462" y2="35.9676" gradientUnits="userSpaceOnUse">
<stop stop-color="#ED1C24"/>
<stop offset="1" stop-color="#C40320"/>
</linearGradient>
<linearGradient id="paint2_linear_41_2375" x1="-10.6314" y1="28.3719" x2="-10.6778" y2="28.4422" gradientUnits="userSpaceOnUse">
<stop stop-color="#FFD400"/>
<stop offset="1" stop-color="#F7941D"/>
</linearGradient>
<linearGradient id="paint3_linear_41_2375" x1="6.08167" y1="29.0336" x2="18.4275" y2="5.88649" gradientUnits="userSpaceOnUse">
<stop stop-color="#FFD400"/>
<stop offset="1" stop-color="#F7771D"/>
</linearGradient>
<linearGradient id="paint4_linear_41_2375" x1="28.9292" y1="2.85344" x2="48.3939" y2="16.8823" gradientUnits="userSpaceOnUse">
<stop stop-color="#ED1C24"/>
<stop offset="1" stop-color="#C40320"/>
</linearGradient>
</defs>
</svg>
