<svg width="80" height="20" viewBox="0 0 80 20" fill="none" xmlns="http://www.w3.org/2000/svg">
<g clip-path="url(#clip0_218_7063)">
<path d="M46.6301 16.4026V9.68509C46.6301 8.06448 45.3519 6.79052 43.7097 6.7591H43.6154C40.5693 6.7591 40.4111 9.35468 40.4111 9.87466V16.4199H38.1384V5.05941H40.4111V6.14488C40.995 5.5469 42.0848 4.77667 43.7736 4.77667C46.836 4.77667 48.9039 6.60203 48.9039 9.3081V16.4037H46.6312L46.6301 16.4026Z" fill="white"/>
<path d="M61.737 16.5447C59.4329 16.5447 57.6326 15.5849 56.6695 13.8386C56.1799 12.9579 55.9275 11.8876 55.9275 10.7393C55.9275 9.79573 56.1008 8.93018 56.4323 8.14371C57.3 6.06703 59.1946 4.9339 61.736 4.9339C61.9721 4.9339 63.9144 4.96532 65.1775 6.19269V5.05956H67.4502V14.2947C67.4502 14.4366 67.5607 14.546 67.7026 14.546H68.3341V16.4179H67.5292C66.6291 16.4179 65.8242 15.9142 65.4136 15.1125C65.4136 15.0811 65.3822 15.0497 65.366 15.0183C64.7193 15.7896 63.8191 16.2608 62.5408 16.5132H62.5094C62.257 16.5447 61.9884 16.5609 61.736 16.5609M61.737 7.08858C59.369 7.08858 58.2804 8.25312 58.2804 10.7382C58.2804 13.7595 60.1587 14.3889 61.737 14.3889C63.3154 14.3889 65.1937 13.7595 65.1937 10.7382C65.1937 8.25203 64.0888 7.08858 61.737 7.08858Z" fill="white"/>
<path d="M49.4086 18.149L49.6448 18.1176C50.6868 17.9605 51.4603 17.0635 51.4603 16.0246V5.04327H53.733V15.5534C53.733 17.8186 51.9651 19.7382 49.6924 19.9267L49.3923 19.9581V18.149H49.4086Z" fill="white"/>
<path d="M51.6668 0.418796C52.1716 -0.0849365 53.0089 -0.0849365 53.53 0.418796C54.0348 0.922528 54.0348 1.75667 53.53 2.27556C53.0252 2.79446 52.1878 2.7793 51.6668 2.27556C51.162 1.77183 51.162 0.937694 51.6668 0.418796Z" fill="white"/>
<path d="M70.1502 16.4027V14.9078L76.8902 7.08854H70.3711V5.04327H79.9526V6.55339L73.2125 14.3574H80.0003V16.4027H70.1502Z" fill="white"/>
<path d="M35.9604 11.3525C35.9604 11.3525 35.9127 10.0472 35.8337 9.59001C35.5964 8.18931 34.9811 7.05727 34.0029 6.25454C32.5189 5.02717 30.7358 4.93292 30.2148 4.93292H30.1357C26.7418 5.012 24.4692 7.16668 24.3272 10.4556V11.0698C24.4692 14.3262 26.7418 16.4657 30.1205 16.5448H30.5148C32.0455 16.4819 33.2457 16.1039 34.2716 15.3174C34.5717 15.0975 34.8555 14.8299 35.1393 14.5309L33.8296 13.2256C33.0724 14.0749 32.0303 14.4995 30.5463 14.5623H30.1205C28.0374 14.5623 26.8209 13.5711 26.5371 11.6201H35.9604V11.3525ZM26.5209 9.82617C26.7733 7.82857 27.9258 6.90019 30.1195 6.90019H30.1509C32.9923 6.96302 33.6552 8.80354 33.7971 9.82617H26.5198H26.5209Z" fill="white"/>
<path d="M15.9428 19.1618C15.9147 19.1802 15.8865 19.2084 15.8583 19.2268C15.8551 19.23 15.1174 19.1878 14.1219 19.1293C12.0528 19.008 8.87347 18.8173 8.87347 18.8173C9.63067 18.5649 10.3315 18.2843 10.9793 17.981C19.314 14.079 18.9608 6.41681 18.9608 6.41681C19.054 6.77105 19.1753 7.14262 19.3064 7.53369C20.7439 11.7315 19.4179 16.3961 15.9439 19.1607L15.9428 19.1618Z" fill="url(#paint0_linear_218_7063)"/>
<path d="M14.1206 19.1292C12.0515 19.0079 8.87217 18.8172 8.87217 18.8172C9.62937 18.5648 10.3302 18.2843 10.978 17.9809L14.1217 19.1292H14.1206Z" fill="#FF8900"/>
<path d="M0.726337 15.9314C0.726337 15.9314 0.772918 15.9867 0.791333 16.0148C3.55582 19.4868 8.2171 20.8279 12.4104 19.3849C12.7278 19.2734 13.0441 19.1672 13.3431 19.0838L13.2987 19.0816C12.7668 19.0535 12.2057 18.9765 11.6922 18.8736H11.664C11.1592 18.7805 10.571 18.6505 9.93623 18.436C7.05909 17.4859 3.18318 15.0756 1.13798 8.9409C1.13798 8.9409 0.717671 15.9227 0.727421 15.9412" fill="url(#paint1_linear_218_7063)"/>
<path d="M1.51993 10.012L1.50043 10.0424L1.53076 10.0619L1.55026 10.0315L1.51993 10.012Z" fill="url(#paint2_linear_218_7063)"/>
<path d="M11.0048 1.18682C10.2498 1.43815 9.55215 1.71764 8.90544 2.01988C8.90327 2.02096 8.90111 2.02204 8.89894 2.02313C0.593569 5.92191 1.00087 13.1432 0.865467 13.4302C0.772307 13.076 0.702978 12.8604 0.571903 12.4693C-0.865586 8.27157 0.460327 3.6069 3.93543 0.842334C3.9636 0.823918 3.99176 0.795752 4.01993 0.777336C4.02318 0.774086 4.76088 0.816335 5.7564 0.874833C5.77048 0.874833 5.78348 0.875916 5.79756 0.876999C7.86767 0.998328 11.0059 1.18682 11.0059 1.18682H11.0048Z" fill="url(#paint3_linear_218_7063)"/>
<g style="mix-blend-mode:multiply" opacity="0.6">
<path d="M11.005 1.18692C10.2499 1.43824 9.55232 1.71773 8.90561 2.01997L5.79665 0.877096C7.86676 0.998425 11.005 1.18692 11.005 1.18692Z" fill="#FF8900"/>
</g>
<path d="M19.3777 4.35971C19.3777 4.35971 19.3127 4.83961 19.252 5.28376C19.2195 5.51776 19.1892 5.73983 19.1686 5.87849C19.0906 6.41689 18.783 8.85647 18.3594 10.0004C18.2197 9.64728 18.0648 9.29954 17.9131 8.97347C17.9077 8.96047 17.9012 8.94855 17.8958 8.93664C15.7433 4.33805 12.4513 2.3827 9.93596 1.55831C9.89263 1.54748 8.74979 1.23224 8.25474 1.13908H8.24499C7.72177 1.03616 7.13248 0.950583 6.5811 0.922417L6.54535 0.920251C6.84433 0.836837 7.15306 0.729591 7.47046 0.616928H7.46071C8.58188 0.225859 9.73989 0.0395317 10.8881 0.0395317C14.0166 0.0395317 17.0617 1.4359 19.0798 3.97731C19.0982 4.00548 19.3777 4.35863 19.3777 4.35863V4.35971Z" fill="url(#paint4_linear_218_7063)"/>
<g style="mix-blend-mode:multiply" opacity="0.6">
<path d="M19.2519 5.28497C19.2194 5.51788 19.189 5.73887 19.1684 5.87862C19.0904 6.41702 18.7925 8.85118 18.3592 10.0006C18.2195 9.6474 18.0646 9.29967 17.9129 8.97359C17.9075 8.96059 17.901 8.94868 17.8956 8.93676L19.2519 5.28606V5.28497Z" fill="#FF0000"/>
</g>
<g style="mix-blend-mode:multiply" opacity="0.6">
<path d="M1.50278 10.0755C1.50278 10.0755 1.48436 10.1502 1.46595 10.1968C1.40962 10.3734 1.33487 10.6529 1.24171 11.0071C1.18538 11.24 1.1388 11.4534 1.10197 11.6593C1.10197 11.6593 1.10197 11.6593 1.10197 11.669C1.01747 12.0698 0.952479 12.5064 0.905899 12.9354L0.831154 14.192C0.962229 13.8107 1.53202 12.163 1.97075 11.0364C1.81151 10.7016 1.66202 10.3571 1.52228 10.0029C1.52228 10.0029 1.52228 10.0311 1.50386 10.0679V10.0863" fill="#FF0000"/>
</g>
</g>
<defs>
<linearGradient id="paint0_linear_218_7063" x1="16.5711" y1="17.7351" x2="13.2194" y2="11.2755" gradientUnits="userSpaceOnUse">
<stop stop-color="#FFCD00"/>
<stop offset="1" stop-color="#FF6000"/>
</linearGradient>
<linearGradient id="paint1_linear_218_7063" x1="10.61" y1="19.3698" x2="0.597233" y2="12.5041" gradientUnits="userSpaceOnUse">
<stop stop-color="#FF0000"/>
<stop offset="1" stop-color="#E70000"/>
</linearGradient>
<linearGradient id="paint2_linear_218_7063" x1="0.03694" y1="12.2902" x2="0.0206904" y2="12.3162" gradientUnits="userSpaceOnUse">
<stop stop-color="#FFCD00"/>
<stop offset="1" stop-color="#FF8300"/>
</linearGradient>
<linearGradient id="paint3_linear_218_7063" x1="2.2033" y1="8.86089" x2="5.83563" y2="3.06644" gradientUnits="userSpaceOnUse">
<stop stop-color="#FFCD00"/>
<stop offset="1" stop-color="#FF6000"/>
</linearGradient>
<linearGradient id="paint4_linear_218_7063" x1="12.0505" y1="5.75066" x2="15.9536" y2="2.93746" gradientUnits="userSpaceOnUse">
<stop stop-color="#FF0000"/>
<stop offset="1" stop-color="#E70000"/>
</linearGradient>
<clipPath id="clip0_218_7063">
<rect width="80" height="19.9175" fill="white" transform="translate(0 0.0412655)"/>
</clipPath>
</defs>
</svg>
