<svg width="12" height="14" viewBox="0 0 12 14" fill="none" xmlns="http://www.w3.org/2000/svg">
<path d="M10.7992 4V10C10.7992 12.4 10.1992 13 7.79922 13H4.19922C1.79922 13 1.19922 12.4 1.19922 10V4C1.19922 1.6 1.79922 1 4.19922 1H7.79922C10.1992 1 10.7992 1.6 10.7992 4Z" stroke="black" stroke-width="0.9" stroke-linecap="round" stroke-linejoin="round"/>
<path d="M7.20078 3.10156H4.80078" stroke="#292D32" stroke-width="0.9" stroke-linecap="round" stroke-linejoin="round"/>
<path d="M6.00031 11.2584C6.51394 11.2584 6.93031 10.8421 6.93031 10.3284C6.93031 9.81481 6.51394 9.39844 6.00031 9.39844C5.48669 9.39844 5.07031 9.81481 5.07031 10.3284C5.07031 10.8421 5.48669 11.2584 6.00031 11.2584Z" stroke="#292D32" stroke-width="0.9" stroke-linecap="round" stroke-linejoin="round"/>
</svg>
