<svg width="41" height="40" viewBox="0 0 41 40" fill="none" xmlns="http://www.w3.org/2000/svg">
<g clip-path="url(#clip0_787_72474)">
<rect x="0.5" width="40" height="40" rx="20" fill="white"/>
<g clip-path="url(#clip1_787_72474)">
<path d="M-3.5 0H49.8333V20H-3.5V0Z" fill="#0038A8"/>
<path d="M-3.5 20H49.8333V40H-3.5V20Z" fill="#CE1126"/>
<path d="M31.1417 20L-3.5 40V0" fill="white"/>
<path d="M-1.27516 3.53516L-0.0834959 4.58516L1.29984 3.81849L0.683171 5.27682L1.84984 6.36016L0.266504 6.22682L-0.408496 7.66016L-0.766829 6.11849L-2.3335 5.91849L-0.975163 5.08516L-1.27516 3.53516ZM25.7082 17.8935L25.7415 19.4768L27.2415 20.0018L25.7415 20.5185L25.7082 22.1018L24.7498 20.8435L23.2332 21.3018L24.1332 20.0018L23.2332 18.7018L24.7498 19.1602L25.7082 17.8935ZM-0.400162 32.3435L0.266504 33.7768L1.84984 33.6435L0.691504 34.7268L1.30817 36.1852L-0.0751626 35.4268L-1.27516 36.4602L-0.975163 34.9018L-2.3335 34.0852L-0.758496 33.8852L-0.400162 32.3435ZM9.1165 11.5935L8.59984 12.1102L8.85817 16.0268L8.60817 16.0518L8.13317 12.4768L7.70817 12.8935L8.34151 16.0935C7.82971 16.1953 7.34278 16.3963 6.90817 16.6852L5.09984 13.9852H4.49984L6.69984 16.8435L6.49984 17.0102L3.90817 14.0518H3.17484V14.7852L6.12484 17.3685L5.95817 17.5768L3.09984 15.3852V15.9768L5.80817 17.7852C5.51928 18.2185 5.32206 18.6963 5.2165 19.2185L2.02484 18.5852L1.59984 19.0018L5.17484 19.4768C5.15817 19.5657 5.14984 19.6518 5.14984 19.7352L1.23317 19.4852L0.716504 20.0018L1.23317 20.5185L5.14984 20.2602L5.17484 20.5185L1.59984 20.9935L2.0165 21.4102L5.2165 20.7768C5.31834 21.2886 5.51934 21.7755 5.80817 22.2102L3.09984 24.0185V24.6185L5.95817 22.4268L6.12484 22.6268L3.17484 25.2102V25.9435H3.9165L6.49984 22.9935L6.70817 23.1602L4.49984 26.0185H5.09984L6.90817 23.3102C7.34151 23.599 7.81928 23.7963 8.34151 23.9018L7.70817 27.1018L8.12484 27.5185L8.59984 23.9435C8.68317 23.9602 8.76928 23.9685 8.85817 23.9685L8.60817 27.8852L9.1165 28.4018L9.64151 27.8852L9.38317 23.9685L9.63317 23.9435L10.1082 27.5268L10.5332 27.1018L9.89984 23.9018C10.4116 23.8 10.8986 23.599 11.3332 23.3102L13.1415 26.0185H13.7415L11.5415 23.1602L11.7415 22.9935L14.3332 25.9435H15.0665V25.2102L12.1165 22.6268L12.2832 22.4268L15.1415 24.6185V24.0185L12.4332 22.2102C12.7221 21.7768 12.9193 21.299 13.0248 20.7768L16.2165 21.4102L16.6415 20.9935L13.0665 20.5185C13.0832 20.4352 13.0915 20.349 13.0915 20.2602L17.0082 20.5102L17.5248 20.0018L17.0082 19.4852L13.0915 19.7352L13.0665 19.4852L16.6415 19.0102L16.2248 18.5935L13.0248 19.2185C12.923 18.7067 12.722 18.2198 12.4332 17.7852L15.1415 15.9768V15.3852L12.2832 17.5768L12.1165 17.3768L15.0665 14.7935V14.0518H14.3332L11.7498 17.0102L11.5415 16.8435L13.7415 13.9852H13.1415L11.3332 16.6852C10.8998 16.3963 10.4221 16.199 9.89984 16.0935L10.5332 12.9018L10.1165 12.4852L9.64151 16.0518L9.38317 16.0268L9.63317 12.1102L9.1165 11.5935Z" fill="#FCD116"/>
</g>
</g>
<defs>
<clipPath id="clip0_787_72474">
<rect x="0.5" width="40" height="40" rx="20" fill="white"/>
</clipPath>
<clipPath id="clip1_787_72474">
<rect width="53.3333" height="40" fill="white" transform="translate(-3.5)"/>
</clipPath>
</defs>
</svg>
