<svg width="160" height="38" viewBox="0 0 160 38" fill="none" xmlns="http://www.w3.org/2000/svg">
<path d="M0.485352 0.0371989C5.87886 0.0371989 11.2724 0.0371989 16.6659 0.0371989C22.3569 9.8571 28.0108 19.7142 33.7019 29.5341C33.0324 30.6872 32.3628 31.8403 31.6933 32.9934C30.9866 34.1465 30.131 35.2252 29.0523 36.0063C28.1596 36.6386 27.1181 37.1222 26.0022 37.1966C24.8491 37.3082 23.7332 36.9734 22.7289 36.3783C21.5014 35.6343 20.5343 34.5556 19.7532 33.3653C19.158 32.4354 18.6373 31.4683 18.0793 30.5012C12.2395 20.3837 6.36241 10.2291 0.485352 0.0371989Z" fill="black"/>
<path d="M22.0222 0.0371989C27.4157 0.0371989 32.8092 0.0371989 38.2027 0.0371989C42.0711 6.76978 45.9768 13.5024 49.8824 20.1977C50.4032 21.1649 51.4819 21.7972 52.5606 21.7972C53.6765 21.7972 54.718 21.1649 55.2759 20.1977C51.4075 13.4652 47.5018 6.73258 43.6334 0C49.0269 0 54.4204 0 59.8139 0C61.8969 3.60807 63.9799 7.21614 66.0629 10.8242C62.3061 17.3336 58.5492 23.8058 54.7924 30.3152C54.2344 31.2451 53.7137 32.175 53.1557 33.105C52.449 34.2581 51.5563 35.2996 50.4776 36.0807C49.5476 36.713 48.4689 37.1594 47.3159 37.1594C46.1628 37.1966 45.0469 36.8246 44.1169 36.1923C42.9267 35.4112 41.9967 34.3325 41.2528 33.1422C40.6949 32.2494 40.1741 31.3195 39.6534 30.3896C33.7391 20.3093 27.8992 10.1919 22.0222 0.0371989Z" fill="black"/>
<path d="M72.2748 0.0371989C73.3535 0.0371989 74.395 0.0371989 75.4737 0.0371989C76.0688 2.41778 76.7012 4.76117 77.2963 7.14175C77.8171 9.22476 78.3378 11.3078 78.747 13.428C79.1189 11.2706 79.6769 9.11317 80.1976 6.95577C80.7556 4.64958 81.3507 2.34339 81.9459 0.0371989C83.0246 0.0371989 84.1033 0.0371989 85.182 0.0371989C86.0747 3.38489 86.9302 6.73259 87.7485 10.1175C88.0089 11.159 88.2321 12.1633 88.4181 13.2048C88.6785 11.7541 89.0132 10.3035 89.3852 8.85279C90.0919 5.91426 90.8731 2.93853 91.6542 0C92.6957 0 93.7 0 94.7415 0C93.1792 5.76547 91.5798 11.5681 90.0175 17.3336C88.9016 17.3336 87.7485 17.3336 86.6326 17.3336C85.8143 14.2091 84.996 11.0474 84.2521 7.88568C83.9917 6.73259 83.7313 5.57949 83.5081 4.3892C83.2106 6.13744 82.7642 7.84848 82.3178 9.59672C81.6483 12.1633 80.9416 14.7298 80.272 17.3336C79.1561 17.3336 78.0774 17.3336 76.9615 17.3336C75.3993 11.6053 73.837 5.80267 72.2748 0.0371989Z" fill="black"/>
<path d="M119.924 1.71105C120.854 1.48787 121.821 1.22749 122.751 1.00431C122.751 2.2318 122.751 3.42209 122.751 4.64957C123.383 4.64957 124.052 4.64957 124.685 4.64957C124.685 5.4679 124.722 6.28623 124.722 7.10455C124.052 7.10455 123.42 7.10455 122.751 7.10455C122.751 9.55952 122.751 11.9773 122.751 14.4323C122.751 14.767 123.048 15.0646 123.383 15.0646C123.829 15.1018 124.276 15.0274 124.722 14.9902C124.722 15.8085 124.722 16.5897 124.722 17.408C123.941 17.6312 123.16 17.6312 122.379 17.6312C121.783 17.6312 121.151 17.4452 120.705 16.9988C120.147 16.4781 119.924 15.7342 119.924 14.9902C119.924 12.3493 119.924 9.70831 119.924 7.06735C119.44 7.06735 118.919 7.06735 118.436 7.06735C118.436 6.24903 118.436 5.43071 118.436 4.61238C118.919 4.61238 119.44 4.61238 119.924 4.61238C119.924 3.64527 119.924 2.67816 119.924 1.71105Z" fill="black"/>
<path d="M96.5269 5.20752C97.6056 4.57518 98.9075 4.3148 100.135 4.3892C101.362 4.42639 102.59 4.79836 103.557 5.54229C104.45 6.17463 105.119 7.10455 105.529 8.14605C106.049 9.37354 106.198 10.7498 106.161 12.0889C102.888 12.0889 99.5771 12.0889 96.3038 12.0889C96.4525 13.2792 97.2337 14.3207 98.3124 14.767C99.7258 15.3622 101.548 15.139 102.664 14.0603C102.962 13.7999 103.185 13.428 103.371 13.0932C104.152 13.5024 104.933 13.8743 105.677 14.2835C105.082 15.5482 103.966 16.5153 102.664 17.0732C101.4 17.6312 99.949 17.78 98.5728 17.5568C97.2709 17.3708 96.0062 16.7757 95.0763 15.8457C94.1464 14.9158 93.514 13.6883 93.2908 12.3865C93.0305 10.8614 93.2164 9.22475 93.9232 7.84848C94.5927 6.73258 95.4854 5.80267 96.5269 5.20752ZM97.4197 7.6997C96.8245 8.18325 96.4525 8.92718 96.341 9.67111C98.6099 9.67111 100.842 9.67111 103.111 9.67111C103.036 8.77839 102.553 7.96007 101.772 7.47651C100.507 6.62099 98.6099 6.69539 97.4197 7.6997Z" fill="black"/>
<path d="M111.071 4.46359C112.521 4.24041 114.121 4.4264 115.348 5.28192C116.39 5.98865 117.059 7.17895 117.059 8.44363C116.167 8.59242 115.311 8.77839 114.419 8.92718C114.344 8.48082 114.307 8.03446 114.084 7.6625C113.749 7.10455 113.079 6.80698 112.447 6.73258C111.852 6.69539 111.257 6.76978 110.736 7.06735C110.401 7.29053 110.178 7.6625 110.215 8.07166C110.252 8.44363 110.55 8.7412 110.885 8.92718C111.443 9.22475 112.038 9.37354 112.67 9.52233C113.786 9.8199 114.939 10.0803 115.944 10.6754C116.613 11.0846 117.171 11.6797 117.431 12.4237C117.841 13.6883 117.617 15.1762 116.687 16.1433C115.758 17.1104 114.381 17.4824 113.079 17.5568C111.443 17.6684 109.732 17.2964 108.393 16.2549C107.537 15.6226 106.979 14.5811 106.979 13.5024C107.872 13.3164 108.802 13.1676 109.695 12.9816C109.732 13.4652 109.881 13.9487 110.215 14.2835C110.773 14.8786 111.629 15.0646 112.41 15.0646C113.005 15.0646 113.675 14.9902 114.158 14.5811C114.567 14.2463 114.716 13.614 114.419 13.1676C114.158 12.7956 113.675 12.6096 113.265 12.4237C112.075 12.0145 110.848 11.8285 109.695 11.3078C108.951 11.0102 108.281 10.5638 107.835 9.89429C107.054 8.704 107.165 6.99296 108.095 5.87706C108.876 5.13313 109.955 4.64957 111.071 4.46359Z" fill="black"/>
<path d="M128.628 5.24472C129.706 4.61238 131.008 4.3148 132.273 4.3892C133.463 4.42639 134.691 4.79836 135.695 5.50509C136.625 6.17463 137.332 7.10455 137.778 8.18325C138.299 9.41074 138.447 10.7498 138.373 12.0889C135.1 12.0889 131.789 12.0889 128.516 12.0889C128.665 13.242 129.409 14.2835 130.45 14.7298C131.789 15.325 133.426 15.1762 134.616 14.3207C135.063 13.9859 135.397 13.5768 135.621 13.0932C136.402 13.4652 137.183 13.8743 137.964 14.2835C137.406 15.511 136.327 16.4409 135.137 16.9988C132.831 18.0775 129.929 17.8544 127.884 16.2921C126.768 15.4366 126.024 14.1719 125.689 12.7956C125.317 11.1962 125.466 9.44794 126.173 7.96007C126.731 6.80698 127.586 5.87706 128.628 5.24472ZM130.673 7.10455C129.558 7.47651 128.702 8.51802 128.553 9.67111C130.822 9.67111 133.054 9.67111 135.323 9.67111C135.249 9.07597 135.025 8.51802 134.653 8.07166C133.686 6.91857 132.012 6.62099 130.673 7.10455Z" fill="black"/>
<path d="M153.252 4.50079C154.702 4.16602 156.265 4.31481 157.529 5.13313C158.422 5.69108 159.092 6.621 159.426 7.6253C159.687 8.36924 159.761 9.18756 159.761 9.96869C159.761 12.4237 159.761 14.9158 159.761 17.3708C158.757 17.3708 157.753 17.3708 156.748 17.3708C156.748 15.0646 156.748 12.7212 156.748 10.415C156.748 9.67111 156.674 8.88999 156.265 8.25765C155.967 7.7369 155.484 7.36493 154.888 7.17895C153.698 6.84418 152.21 7.06736 151.466 8.10886C150.946 8.7784 150.76 9.67112 150.76 10.4894C150.76 12.7956 150.76 15.0646 150.76 17.3708C149.755 17.3708 148.751 17.3708 147.747 17.3708C147.747 13.1304 147.747 8.85279 147.747 4.61238C148.602 4.61238 149.495 4.61238 150.35 4.61238C150.35 5.20753 150.35 5.80267 150.35 6.43501C150.983 5.43071 152.099 4.76117 153.252 4.50079Z" fill="black"/>
<path d="M139.675 4.61238C140.493 4.61238 141.349 4.61238 142.167 4.61238C142.167 5.13313 142.167 5.69108 142.167 6.21184C142.502 5.69108 142.985 5.24472 143.543 4.98435C144.473 4.53799 145.515 4.4636 146.519 4.61238C146.519 5.5051 146.519 6.39782 146.482 7.29054C145.664 7.17895 144.771 7.14175 143.953 7.47652C143.432 7.6997 142.985 8.14606 142.799 8.66681C142.539 9.29915 142.651 10.0059 142.614 10.6382C142.614 12.87 142.614 15.139 142.651 17.3708C141.646 17.3708 140.642 17.3708 139.638 17.3708C139.675 13.1304 139.675 8.88999 139.675 4.61238Z" fill="black"/>
<path d="M104.152 19.6398C104.636 19.491 105.231 19.5282 105.64 19.8258C106.161 20.1605 106.496 20.7557 106.458 21.3508C106.421 22.132 105.826 22.8015 105.045 22.9503C104.413 23.0619 103.706 22.8015 103.334 22.3179C102.999 21.8716 102.888 21.2764 103.074 20.7557C103.222 20.2349 103.631 19.7886 104.152 19.6398Z" fill="black"/>
<path d="M73.6138 30.092C73.6138 26.5956 73.6138 23.1363 73.6138 19.6398C74.6181 19.6398 75.6597 19.6398 76.664 19.6398C76.664 23.0991 76.664 26.5584 76.664 29.9804C76.7012 31.2079 76.9987 32.547 77.9286 33.4397C78.747 34.2209 79.9745 34.444 81.0904 34.3325C82.0203 34.2581 82.9502 33.8489 83.5453 33.105C84.2893 32.2122 84.5124 31.022 84.5124 29.9061C84.5124 26.484 84.5124 23.0619 84.5124 19.6398C85.5167 19.6398 86.5211 19.6398 87.5254 19.6398C87.5254 22.5783 87.5254 25.5169 87.5254 28.4554C87.5254 29.4225 87.5626 30.3896 87.4138 31.3567C87.1906 32.8074 86.6327 34.2581 85.5911 35.2996C84.6612 36.2667 83.4337 36.8246 82.1319 37.0478C80.5696 37.3082 78.8958 37.1966 77.4451 36.5643C76.3664 36.0807 75.3993 35.2996 74.8041 34.2581C73.9858 33.0678 73.6882 31.5799 73.6138 30.092Z" fill="black"/>
<path d="M94.8531 24.1406C96.2666 23.843 97.866 23.9918 99.0935 24.7729C99.9862 25.3309 100.619 26.2236 100.953 27.1907C101.214 27.9718 101.325 28.8274 101.325 29.6457C101.325 32.1007 101.325 34.5556 101.325 37.0106C100.321 37.0106 99.3167 37.0106 98.3124 37.0106C98.3124 34.7788 98.3124 32.547 98.3124 30.3152C98.3124 29.5713 98.2752 28.753 97.9404 28.0462C97.7172 27.5255 97.2709 27.1163 96.7501 26.8931C96.155 26.6328 95.4482 26.5956 94.8159 26.7071C94.1464 26.8187 93.514 27.1535 93.0676 27.7115C92.5469 28.381 92.3609 29.2737 92.3609 30.092C92.3609 32.3982 92.3609 34.7044 92.3609 37.0106C91.3566 37.0106 90.3523 37.0106 89.348 37.0106C89.348 32.7702 89.348 28.4926 89.348 24.2522C90.2035 24.2522 91.0962 24.2522 91.9518 24.2522C91.9518 24.8473 91.9518 25.4425 91.9518 26.0748C92.5841 25.0333 93.7 24.3638 94.8531 24.1406Z" fill="black"/>
<path d="M113.563 24.029C115.125 23.8802 116.725 24.1778 118.064 25.0333C119.18 25.7028 120.035 26.7444 120.519 27.9346C121.486 30.2408 121.151 33.105 119.514 35.002C118.547 36.1179 117.208 36.8618 115.758 37.1222C114.158 37.4198 112.41 37.2338 110.959 36.4527C109.806 35.8575 108.876 34.8904 108.318 33.7745C107.165 31.4311 107.388 28.4182 109.062 26.4096C110.178 24.9961 111.852 24.1778 113.563 24.029ZM113.823 26.7815C112.856 26.8931 111.964 27.4139 111.368 28.1578C110.252 29.5713 110.29 31.7287 111.406 33.1422C112.112 34.0349 113.303 34.5556 114.456 34.4812C115.609 34.4812 116.762 33.8861 117.469 32.919C118.51 31.4683 118.436 29.2737 117.208 27.9718C116.353 27.0419 115.051 26.5956 113.823 26.7815Z" fill="black"/>
<path d="M127.995 24.1406C129.409 23.843 130.971 23.9546 132.198 24.7357C133.091 25.2565 133.724 26.112 134.095 27.0791C134.393 27.8602 134.505 28.7158 134.505 29.5713C134.505 32.0635 134.505 34.5556 134.505 37.0106C133.5 37.0106 132.496 37.0106 131.492 37.0106C131.492 34.6672 131.492 32.2866 131.492 29.9432C131.492 29.1621 131.38 28.381 130.934 27.7115C130.599 27.1907 130.041 26.8559 129.446 26.7443C128.814 26.5956 128.144 26.6328 127.549 26.8187C126.954 27.0047 126.433 27.3767 126.098 27.8974C125.652 28.5298 125.503 29.3481 125.503 30.092C125.503 32.3982 125.503 34.7044 125.503 37.0106C124.499 37.0106 123.494 37.0106 122.49 37.0106C122.49 32.7702 122.49 28.4926 122.49 24.2522C123.346 24.2522 124.238 24.2522 125.094 24.2522C125.094 24.8473 125.094 25.4425 125.094 26.0748C125.726 25.0333 126.842 24.401 127.995 24.1406Z" fill="black"/>
<path d="M103.222 24.2522C104.227 24.2522 105.231 24.2522 106.235 24.2522C106.235 28.4926 106.235 32.7702 106.235 37.0106C105.231 37.0106 104.227 37.0106 103.222 37.0106C103.222 32.733 103.222 28.4926 103.222 24.2522Z" fill="black"/>
</svg>
