<svg width="186" height="38" viewBox="0 0 186 38" fill="none" xmlns="http://www.w3.org/2000/svg">
<path d="M62.1596 8.58054H61.1707C60.2053 8.58054 59.7815 8.86161 59.1457 9.91563L53.8715 18.4181L51.6818 10.0093C51.4228 9.00215 51.1402 8.60396 50.0336 8.60396H49.2095C48.1264 8.60396 47.4436 9.23637 47.2317 10.3607L44.7829 24.0395C44.5945 25.0701 45.0655 25.6088 45.9602 25.6088H46.3369C47.2788 25.6088 47.7026 25.1404 47.8674 24.1332L49.8452 13.0777L51.7524 20.4792C51.9172 21.2288 52.0585 21.7207 53.4948 21.7207C54.6956 21.7207 54.9782 21.299 55.402 20.6198L60.064 13.0074L58.0862 24.0629C57.8978 25.1169 58.3687 25.6322 59.2399 25.6322H59.6402C60.582 25.6322 61.0058 25.1404 61.1707 24.1566L63.5959 10.3841C63.8078 9.28322 63.2662 8.58054 62.1596 8.58054Z" fill="black"/>
<path d="M76.8756 18.3712C76.7579 15.0452 74.4975 12.6092 70.6831 12.6092C66.3272 12.6092 63.6665 16.1461 63.7842 20.0108C63.9255 23.5476 66.3742 25.8196 69.9767 25.8196C74.4504 25.7962 76.9933 22.236 76.8756 18.3712ZM70.0003 23.3837C67.9518 23.3837 66.6568 21.908 66.5862 19.8937C66.492 17.2938 68.2108 14.9983 70.6596 14.9983C72.5432 14.9983 74.0266 16.474 74.0972 18.5117C74.1678 21.2522 72.449 23.3837 70.0003 23.3837Z" fill="black"/>
<path d="M86.5999 12.6092C84.7869 12.6092 83.3506 13.4993 82.3853 14.9983C82.4795 13.2885 81.5376 12.7966 80.5723 12.7966C80.1249 12.7966 79.7717 12.9137 79.7482 12.9606L77.7703 24.0863C77.582 25.2341 78.2177 25.562 79.0653 25.562H79.4185C80.3368 25.562 80.7135 25.1872 80.9019 24.0863L82.0792 17.4109C82.9268 15.9353 83.8687 15.2326 85.3285 15.2326C86.7883 15.2326 87.6595 16.0992 87.683 17.528C87.7066 17.9028 87.6124 18.3712 87.5418 18.9334L86.6235 24.0863C86.4351 25.2341 87.0944 25.562 87.9185 25.562H88.2717C89.19 25.562 89.5667 25.1872 89.755 24.0863L90.7675 18.3946C90.8852 17.7622 90.9559 17.2001 90.9323 16.6848C90.8617 14.2957 89.2606 12.6092 86.5999 12.6092Z" fill="black"/>
<path d="M142.309 12.6092C140.826 12.6092 139.719 13.4525 138.965 14.9983C139.083 13.2885 138.141 12.7966 137.176 12.7966C136.705 12.7966 136.375 12.9137 136.352 12.9606L134.35 24.0863C134.162 25.2341 134.916 25.562 135.763 25.562H136.116C136.917 25.562 137.294 25.1872 137.506 24.0863L138.165 20.3621C138.659 17.4577 139.742 15.4434 141.485 15.4434C142.332 15.4434 142.874 15.7947 143.227 16.1929C143.274 16.2397 144.593 15.7244 144.546 14.1786C144.475 13.2182 143.51 12.6092 142.309 12.6092Z" fill="black"/>
<path d="M157.519 12.7966C156.295 12.7966 155.612 13.3822 155.212 14.9281C154.435 13.4759 152.834 12.5858 150.974 12.5858C147.018 12.5858 144.263 16.0992 144.263 20.0811C144.263 23.3602 146.288 25.7962 149.49 25.7962C151.445 25.7962 152.951 24.9998 153.917 23.3837C153.776 25.0701 154.105 25.5854 155.33 25.5854C156.413 25.5854 156.766 25.1872 156.884 23.9927C157.025 21.7909 157.778 18.2073 158.65 13.1714C158.65 13.0777 158.155 12.7966 157.519 12.7966ZM150.173 23.3837C148.242 23.3837 147.136 22.1657 147.136 20.0108C147.136 17.4811 148.619 14.9515 151.374 14.9515C153.611 14.9515 154.553 16.5911 154.553 18.3946C154.553 20.6666 152.999 23.3837 150.173 23.3837Z" fill="black"/>
<path d="M176.309 12.6092C174.143 12.6092 172.706 13.7101 171.694 15.3263C171.199 13.6164 169.716 12.6092 167.832 12.6092C166.184 12.6092 164.748 13.3822 163.759 14.8578C163.806 13.2885 162.888 12.82 161.946 12.82C161.475 12.82 161.145 12.9372 161.122 12.984L159.144 24.1098C158.956 25.2575 159.591 25.5854 160.439 25.5854H160.792C161.593 25.5854 162.087 25.2575 162.276 24.1098L163.5 17.2001C164.395 15.8181 165.242 15.2326 166.561 15.2326C167.856 15.2326 168.656 16.1929 168.656 17.6451C168.656 17.8793 168.633 18.137 168.586 18.4181L167.597 24.1098C167.409 25.2575 168.068 25.5854 168.892 25.5854H169.222C170.022 25.5854 170.54 25.2341 170.728 24.1098L171.953 17.2001C172.848 15.8181 173.695 15.2326 175.014 15.2326C176.262 15.2326 177.18 15.9821 177.18 17.528C177.18 17.9028 177.109 18.3712 177.015 18.9334L176.097 24.0863C175.908 25.2341 176.544 25.562 177.392 25.562H177.745C178.663 25.562 179.04 25.1872 179.228 24.0863L180.241 18.3946C180.359 17.7622 180.406 17.2001 180.406 16.6848C180.429 14.1786 178.734 12.6092 176.309 12.6092Z" fill="black"/>
<path d="M105.225 18.1838C105.225 16.4506 104.871 15.3028 104.094 14.2957C103.247 13.2182 101.669 12.5624 99.8326 12.5624C94.2758 12.5624 92.2744 16.6379 92.2744 20.1748C92.2744 23.5476 94.7232 25.7962 98.4905 25.7962C102.258 25.7962 104.377 24.1332 104.377 22.7981C104.377 21.908 103.741 21.6035 103.011 21.5333C102.022 22.7981 100.657 23.4071 98.7966 23.4071C97.1484 23.4071 95.1941 22.7747 95.0528 19.8468H103.6C104.518 19.8703 105.225 19.355 105.225 18.1838ZM102.47 17.7856H95.3354C96.0182 15.9821 97.5957 14.8578 99.5971 14.8578C100.61 14.8578 101.387 15.1389 101.905 15.701C102.352 16.2163 102.517 16.919 102.47 17.7856Z" fill="black"/>
<path d="M131.76 16.474H126.675C126.062 16.474 125.78 16.6145 125.591 16.8019C125.285 17.1298 125.121 17.8793 125.121 18.2073C125.144 18.7226 125.591 19.027 126.416 19.027H130.018C129.524 21.5333 127.923 23.2665 125.168 23.2665C122.272 23.2665 120.341 21.4396 120.223 18.3244C120.082 14.4128 122.695 11.1805 126.392 11.1805C128.558 11.1805 130.254 12.3282 130.936 13.8506C131.031 13.9678 133.032 13.9678 132.961 12.2579C132.938 11.6489 132.585 10.9228 131.925 10.3138C130.866 9.25979 128.864 8.34631 126.204 8.34631C122.483 8.34631 119.54 10.3841 118.01 13.3353C118.01 13.3119 117.986 13.3119 117.986 13.3119C117.68 12.9137 117.186 12.7263 116.691 12.7263C115.867 12.7263 115.326 12.984 114.525 14.3894L110.569 21.299L109.086 14.4128C108.803 13.1245 108.333 12.7263 107.508 12.7263C106.543 12.7263 105.766 13.429 105.79 13.593L108.615 24.7188L105.695 29.497C105.389 30.0123 105.366 30.6915 106.472 30.6915H107.085C108.238 30.6915 108.615 29.9889 109.18 29.0285L117.139 15.6308C116.903 16.5677 116.785 17.5748 116.833 18.6054C116.974 23.1026 120.035 25.8196 124.508 25.8196C126.627 25.8196 128.323 25.0232 129.265 23.8053C129.194 25.1169 129.9 25.6322 130.842 25.6322C131.36 25.6322 131.737 25.4683 131.737 25.3746L133.032 18.1604C133.244 17.0361 132.82 16.474 131.76 16.474Z" fill="black"/>
<path d="M183.773 24.2035C183.867 24.3674 183.938 24.4377 184.055 24.4377C184.055 24.4377 184.079 24.6251 183.843 24.6251C183.702 24.6251 183.608 24.5548 183.467 24.2971L183.208 23.8287H182.972L182.854 24.4845C182.831 24.5782 182.784 24.6251 182.69 24.6251H182.643C182.548 24.6251 182.501 24.5782 182.525 24.4611L182.854 22.7747C182.878 22.6576 182.949 22.6107 183.066 22.6107H183.561C184.008 22.6107 184.267 22.7981 184.267 23.126C184.267 23.5242 184.008 23.7818 183.561 23.8053L183.773 24.2035ZM183.467 23.571C183.773 23.571 183.938 23.4071 183.914 23.1494C183.914 22.9621 183.773 22.8449 183.514 22.8449H183.161L183.019 23.5476H183.467V23.571Z" fill="black"/>
<path d="M183.396 22.072C184.314 22.072 185.044 22.8215 185.044 23.7116C185.044 24.6251 184.291 25.3512 183.396 25.3512C182.478 25.3512 181.748 24.6016 181.748 23.7116C181.724 22.8215 182.478 22.072 183.396 22.072ZM183.396 21.7909C182.336 21.7909 181.465 22.6576 181.465 23.7116C181.465 24.7656 182.336 25.6322 183.396 25.6322C184.456 25.6322 185.327 24.7656 185.327 23.7116C185.327 22.6576 184.456 21.7909 183.396 21.7909Z" fill="black"/>
<path d="M19.4949 37.203C29.807 37.203 38.1666 28.8871 38.1666 18.6289C38.1666 8.37063 29.807 0.0546875 19.4949 0.0546875C9.18284 0.0546875 0.823242 8.37063 0.823242 18.6289C0.823242 28.8871 9.18284 37.203 19.4949 37.203Z" fill="white"/>
<path d="M38.1666 18.6289C38.1666 28.888 29.8079 37.203 19.4949 37.203C9.18194 37.203 0.823242 28.888 0.823242 18.6289C0.823242 15.7947 1.45897 13.1245 2.58916 10.7354C1.8357 12.6327 1.48252 14.5299 1.48252 16.2866C1.48252 24.6953 8.31075 25.9133 11.2069 25.8899C15.6334 25.843 20.7899 23.6882 25.1459 19.7063C25.1459 19.7063 24.5808 22.8449 24.416 23.8053C24.2511 24.7422 24.8633 25.562 25.8051 25.562H26.1819C27.1472 25.562 27.8536 24.7656 28.0184 23.8053L29.596 15.0452C29.7844 14.0614 29.1486 13.2885 28.1597 13.2885H19.3536C18.3647 13.2885 17.47 13.8038 17.3052 14.7875C17.3052 14.8344 17.2345 15.1155 17.2345 15.1857C17.0933 16.1226 17.7525 16.8253 18.6944 16.8253H23.2858C23.2151 16.8956 23.1445 16.9659 23.0739 17.0361C19.8952 20.0108 15.9631 21.6504 12.7138 21.6504C9.48803 21.6504 5.86201 19.6126 5.86201 15.0452C5.86201 5.55901 14.8093 0.0546875 19.4949 0.0546875C29.7844 0.0546875 38.1666 8.36973 38.1666 18.6289Z" fill="black"/>
</svg>
