<svg width="182" height="38" viewBox="0 0 182 38" fill="none" xmlns="http://www.w3.org/2000/svg">
<path fill-rule="evenodd" clip-rule="evenodd" d="M135.713 33.657V20.3742H130.971V17.3126H143.911V20.3742H139.192V33.657H135.713ZM115.801 31.3542L117.7 28.6319C118.843 29.8339 120.621 30.8633 122.857 30.8633C124.778 30.8633 125.679 30.005 125.679 29.0485C125.679 26.2071 116.337 28.1916 116.337 22.0417C116.337 19.3223 118.673 17.0671 122.492 17.0671C125.072 17.0671 127.212 17.8511 128.817 19.3461L126.896 21.9449C125.581 20.7178 123.83 20.1554 122.175 20.1554C120.717 20.1554 119.89 20.7921 119.89 21.771C119.89 24.3446 129.207 22.6055 129.207 28.7063C129.207 31.6964 127.068 33.9487 122.711 33.9487C119.574 33.9487 117.335 32.8983 115.801 31.3542ZM110.428 33.657L109.408 30.8871H102.451L101.426 33.657H97.5108L103.761 17.3126H108.093L114.346 33.657H110.428ZM105.93 20.7921L103.397 27.8227H108.458L105.93 20.7921ZM85.717 33.657V26.869H82.9297L82.9436 23.806H85.717V17.3126H97.1975V20.3742H89.1698V23.806H97.0263V26.869H89.1698V33.657H85.717ZM67.1206 31.3542L69.0182 28.6319C70.1613 29.8339 71.9364 30.8633 74.1765 30.8633C76.0979 30.8633 76.9973 30.005 76.9973 29.0485C76.9973 26.2071 67.6566 28.1916 67.6566 22.0417C67.6566 19.3223 69.9914 17.0671 73.8104 17.0671C76.3888 17.0671 78.5287 17.8511 80.134 19.3461L78.2141 21.9449C76.8998 20.7178 75.1497 20.1554 73.4943 20.1554C72.0339 20.1554 71.2069 20.7921 71.2069 21.771C71.2069 24.3446 80.5252 22.6055 80.5252 28.7063C80.5252 31.6964 78.3853 33.9487 74.0303 33.9487C70.8922 33.9487 68.6535 32.8983 67.1206 31.3542ZM60.9292 33.657L53.1938 22.9968V33.657H49.741V17.3126H53.2913L60.8095 27.5787V17.3126H64.2623V33.657H60.9292ZM43.4522 33.657L42.4303 30.8871H35.4745L34.4512 33.657H30.5348L36.7875 17.3126H41.116L47.3686 33.657H43.4522ZM38.951 20.7921L36.4213 27.8227H41.4821L38.951 20.7921ZM25.0048 33.657L21.8179 27.848H19.2882V33.657H15.834V17.3126H23.4232C26.805 17.3126 28.8975 19.5411 28.8975 22.5817C28.8975 25.4469 27.0723 27.0163 25.3208 27.4314L28.9936 33.657H25.0048ZM25.3445 22.555C25.3445 21.2086 24.2989 20.3742 22.9373 20.3742H19.2882V24.7864H22.9373C24.2989 24.7864 25.3445 23.9519 25.3445 22.555ZM5.13168 33.657V20.3742H0.389648V17.3126H13.3307V20.3742H8.61093V33.657H5.13168ZM167.11 15.3379L166.208 19.5439H159.693L156.424 34.5532C158.348 35.9627 160.634 36.9009 163.115 37.2039L165.031 28.4482H160.936L161.839 24.2899H165.94L167.899 15.3379H177.158C174.639 11.1543 170.074 8.35775 164.861 8.35775C159.646 8.35775 155.082 11.1543 152.563 15.3379H167.11ZM170.705 24.2548H179.164C179.208 23.7878 179.232 23.3152 179.232 22.8355C179.232 21.7037 179.1 20.6028 178.856 19.5439H171.74L170.705 24.2548ZM154.953 19.5439H150.865C150.62 20.6028 150.488 21.7037 150.488 22.8355C150.488 25.5886 151.251 28.1621 152.575 30.3542L154.953 19.5439ZM169.769 28.4608L167.906 36.9851C172.52 35.9823 176.311 32.7496 178.109 28.4608H169.769Z" fill="black"/>
<path fill-rule="evenodd" clip-rule="evenodd" d="M180.923 33.3578L180.656 34.152L180.39 33.3578H180.161V34.5135H180.322V33.6424L180.573 34.3943H180.742L180.992 33.6405V34.5135H181.155V33.3578H180.923ZM179.232 33.3597V33.5559H179.528V34.5135H179.69V33.5559H179.987V33.3597H179.232Z" fill="black"/>
<path d="M1.90693 8.35831V1.87382L6.90875 8.35831H7.74527V0.281546H6.81644V6.76603L1.81462 0.281546H0.978098V8.35831H1.90693ZM12.2683 8.46792C12.4682 8.46792 12.6663 8.45446 12.8625 8.42754C13.0586 8.40061 13.25 8.3535 13.4365 8.28619C13.623 8.21889 13.8067 8.13043 13.9874 8.02081C14.1682 7.9112 14.3432 7.77563 14.5124 7.61409L14.0509 7.02564C13.8163 7.24102 13.5538 7.40929 13.2634 7.53044C12.973 7.65159 12.6586 7.71217 12.3202 7.71217C12.074 7.71217 11.8404 7.67467 11.6192 7.59967C11.3981 7.52467 11.201 7.41217 11.0279 7.26217C10.8548 7.11218 10.7125 6.9266 10.601 6.70545C10.4894 6.4843 10.4183 6.22566 10.3875 5.92951H14.7663C14.7778 5.83336 14.7836 5.72567 14.7836 5.60644C14.7797 5.19106 14.7134 4.8103 14.5846 4.46415C14.4557 4.11801 14.2778 3.8209 14.0509 3.57283C13.824 3.32475 13.5538 3.13149 13.2403 2.99303C12.9269 2.85457 12.5856 2.78534 12.2163 2.78534C11.8279 2.78534 11.4683 2.85553 11.1375 2.99591C10.8067 3.1363 10.5202 3.33148 10.2779 3.58148C10.0356 3.83147 9.84619 4.13051 9.70965 4.47858C9.57312 4.82665 9.50485 5.21029 9.50485 5.62951C9.50485 6.05258 9.57312 6.43815 9.70965 6.78622C9.84619 7.13429 10.0366 7.43332 10.2808 7.68332C10.525 7.93331 10.8164 8.12658 11.1548 8.26311C11.4933 8.39965 11.8644 8.46792 12.2683 8.46792ZM13.9067 5.23145H10.3991C10.4337 4.9853 10.5 4.75934 10.5981 4.55358C10.6962 4.34781 10.8212 4.17089 10.9731 4.02282C11.125 3.87474 11.3038 3.75936 11.5096 3.67667C11.7154 3.59398 11.9452 3.55263 12.199 3.55263C12.4298 3.55263 12.6442 3.59206 12.8423 3.6709C13.0404 3.74975 13.2134 3.86224 13.3615 4.00839C13.5096 4.15454 13.6307 4.33146 13.725 4.53915C13.8192 4.74684 13.8798 4.9776 13.9067 5.23145ZM18.695 8.46792C19.0335 8.46792 19.3364 8.41696 19.6037 8.31504C19.871 8.21312 20.1085 8.08331 20.3162 7.92562L19.9123 7.27371C19.7508 7.38909 19.572 7.48236 19.3758 7.55351C19.1797 7.62467 18.9758 7.66024 18.7643 7.66024C18.6066 7.66024 18.4614 7.63621 18.3287 7.58813C18.196 7.54005 18.0816 7.46602 17.9854 7.36602C17.8893 7.26602 17.8143 7.1391 17.7604 6.98526C17.7066 6.83141 17.6797 6.6468 17.6797 6.43142V3.67379H20.0392V2.89495H17.6797V1.15845H16.8201V2.89495H15.6259V3.67379H16.8201V6.44873C16.8201 6.79103 16.8624 7.0891 16.947 7.34294C17.0316 7.59678 17.1547 7.80735 17.3162 7.97466C17.4778 8.14196 17.6739 8.266 17.9047 8.34677C18.1354 8.42754 18.3989 8.46792 18.695 8.46792ZM23.8296 8.35831L25.4564 3.81801L27.0891 8.35831H28.1102L30.1294 2.89495H29.2352L27.591 7.46409L25.9526 2.89495H24.9834L23.3565 7.45832L21.7238 2.89495H20.8065L22.8257 8.35831H23.8296ZM33.839 8.46792C34.2505 8.46792 34.6322 8.3958 34.9841 8.25158C35.3361 8.10735 35.6399 7.90832 35.8957 7.65447C36.1514 7.40063 36.3524 7.09968 36.4985 6.75161C36.6447 6.40354 36.7178 6.02758 36.7178 5.62375C36.7178 5.21991 36.6447 4.84492 36.4985 4.49877C36.3524 4.15262 36.1514 3.85263 35.8957 3.59879C35.6399 3.34495 35.3361 3.14591 34.9841 3.00168C34.6322 2.85746 34.2505 2.78534 33.839 2.78534C33.4274 2.78534 33.0467 2.85746 32.6967 3.00168C32.3467 3.14591 32.0429 3.34495 31.7852 3.59879C31.5275 3.85263 31.3265 4.15262 31.1823 4.49877C31.0381 4.84492 30.9659 5.21991 30.9659 5.62375C30.9659 6.02758 31.0381 6.40354 31.1823 6.75161C31.3265 7.09968 31.5275 7.40063 31.7852 7.65447C32.0429 7.90832 32.3467 8.10735 32.6967 8.25158C33.0467 8.3958 33.4274 8.46792 33.839 8.46792ZM33.839 7.66024C33.5544 7.66024 33.2909 7.60928 33.0486 7.50736C32.8063 7.40544 32.5957 7.2641 32.4169 7.08333C32.238 6.90257 32.0977 6.68815 31.9957 6.44008C31.8938 6.192 31.8429 5.91989 31.8429 5.62375C31.8429 5.33144 31.8938 5.0603 31.9957 4.8103C32.0977 4.56031 32.238 4.34589 32.4169 4.16704C32.5957 3.9882 32.8063 3.84782 33.0486 3.7459C33.2909 3.64398 33.5544 3.59302 33.839 3.59302C34.1197 3.59302 34.3822 3.64398 34.6264 3.7459C34.8707 3.84782 35.0822 3.9882 35.2611 4.16704C35.4399 4.34589 35.5803 4.56031 35.6822 4.8103C35.7841 5.0603 35.8351 5.33144 35.8351 5.62375C35.8351 5.91989 35.7841 6.192 35.6822 6.44008C35.5803 6.68815 35.4399 6.90257 35.2611 7.08333C35.0822 7.2641 34.8707 7.40544 34.6264 7.50736C34.3822 7.60928 34.1197 7.66024 33.839 7.66024ZM39.1812 8.35831V5.30068C39.1812 5.04299 39.2177 4.80934 39.2908 4.59973C39.3639 4.39012 39.4648 4.21127 39.5937 4.0632C39.7225 3.91513 39.8763 3.80071 40.0552 3.71994C40.234 3.63917 40.4311 3.59879 40.6465 3.59879C40.8081 3.59879 40.9725 3.61706 41.1398 3.65359C41.3071 3.69013 41.458 3.74494 41.5927 3.81801L41.8003 2.96995C41.6542 2.90457 41.4994 2.85746 41.3359 2.82861C41.1725 2.79976 40.9927 2.78534 40.7965 2.78534C40.4581 2.78534 40.1504 2.8613 39.8735 3.01322C39.5965 3.16514 39.3639 3.38148 39.1754 3.66225V2.89495H38.3216V8.35831H39.1812ZM43.9753 8.35831V5.89489H44.7599L46.9002 8.35831H47.9906L45.4695 5.46798L47.9502 2.89495H46.8714L44.7657 5.11029H43.9753V0.0507812H43.1099V8.35831H43.9753ZM53.079 10.666V7.55063C53.2982 7.82755 53.5713 8.04966 53.8982 8.21696C54.2251 8.38427 54.6155 8.46792 55.0693 8.46792C55.4539 8.46792 55.8116 8.39677 56.1424 8.25446C56.4731 8.11216 56.7616 7.91505 57.0077 7.66313C57.2539 7.41121 57.4471 7.11122 57.5875 6.76315C57.7279 6.41508 57.7981 6.03528 57.7981 5.62375C57.7981 5.21606 57.7279 4.83818 57.5875 4.49012C57.4471 4.14205 57.2539 3.84205 57.0077 3.59013C56.7616 3.33821 56.4731 3.1411 56.1424 2.9988C55.8116 2.85649 55.4539 2.78534 55.0693 2.78534C54.6155 2.78534 54.2251 2.86899 53.8982 3.0363C53.5713 3.2036 53.2982 3.42571 53.079 3.70263V2.89495H52.2136V10.666H53.079ZM54.9655 7.66024C54.6808 7.66024 54.4193 7.60832 54.1809 7.50448C53.9424 7.40063 53.7376 7.25833 53.5664 7.07756C53.3953 6.8968 53.2617 6.68142 53.1655 6.43142C53.0693 6.18143 53.0213 5.9122 53.0213 5.62375C53.0213 5.33529 53.0693 5.06703 53.1655 4.81895C53.2617 4.57088 53.3953 4.35646 53.5664 4.1757C53.7376 3.99493 53.9424 3.85263 54.1809 3.74878C54.4193 3.64494 54.6808 3.59302 54.9655 3.59302C55.2539 3.59302 55.5183 3.6459 55.7587 3.75167C55.9991 3.85744 56.2049 4.00262 56.376 4.18724C56.5472 4.37185 56.6798 4.58723 56.7741 4.83338C56.8683 5.07953 56.9154 5.34298 56.9154 5.62375C56.9154 5.90836 56.8683 6.17373 56.7741 6.41988C56.6798 6.66603 56.5481 6.88141 56.3789 7.06602C56.2097 7.25064 56.0049 7.39583 55.7645 7.50159C55.5241 7.60736 55.2578 7.66024 54.9655 7.66024ZM61.8595 8.46792C62.2711 8.46792 62.6528 8.3958 63.0047 8.25158C63.3566 8.10735 63.6605 7.90832 63.9162 7.65447C64.172 7.40063 64.373 7.09968 64.5191 6.75161C64.6653 6.40354 64.7383 6.02758 64.7383 5.62375C64.7383 5.21991 64.6653 4.84492 64.5191 4.49877C64.373 4.15262 64.172 3.85263 63.9162 3.59879C63.6605 3.34495 63.3566 3.14591 63.0047 3.00168C62.6528 2.85746 62.2711 2.78534 61.8595 2.78534C61.448 2.78534 61.0673 2.85746 60.7173 3.00168C60.3673 3.14591 60.0634 3.34495 59.8057 3.59879C59.5481 3.85263 59.3471 4.15262 59.2029 4.49877C59.0586 4.84492 58.9865 5.21991 58.9865 5.62375C58.9865 6.02758 59.0586 6.40354 59.2029 6.75161C59.3471 7.09968 59.5481 7.40063 59.8057 7.65447C60.0634 7.90832 60.3673 8.10735 60.7173 8.25158C61.0673 8.3958 61.448 8.46792 61.8595 8.46792ZM61.8595 7.66024C61.5749 7.66024 61.3115 7.60928 61.0692 7.50736C60.8269 7.40544 60.6163 7.2641 60.4375 7.08333C60.2586 6.90257 60.1182 6.68815 60.0163 6.44008C59.9144 6.192 59.8634 5.91989 59.8634 5.62375C59.8634 5.33144 59.9144 5.0603 60.0163 4.8103C60.1182 4.56031 60.2586 4.34589 60.4375 4.16704C60.6163 3.9882 60.8269 3.84782 61.0692 3.7459C61.3115 3.64398 61.5749 3.59302 61.8595 3.59302C62.1403 3.59302 62.4028 3.64398 62.647 3.7459C62.8913 3.84782 63.1028 3.9882 63.2816 4.16704C63.4605 4.34589 63.6009 4.56031 63.7028 4.8103C63.8047 5.0603 63.8557 5.33144 63.8557 5.62375C63.8557 5.91989 63.8047 6.192 63.7028 6.44008C63.6009 6.68815 63.4605 6.90257 63.2816 7.08333C63.1028 7.2641 62.8913 7.40544 62.647 7.50736C62.4028 7.60928 62.1403 7.66024 61.8595 7.66024ZM68.569 8.35831L70.1959 3.81801L71.8286 8.35831H72.8497L74.8689 2.89495H73.9747L72.3305 7.46409L70.6921 2.89495H69.7229L68.096 7.45832L66.4633 2.89495H65.546L67.5652 8.35831H68.569ZM78.4688 8.46792C78.6688 8.46792 78.8669 8.45446 79.063 8.42754C79.2592 8.40061 79.4505 8.3535 79.6371 8.28619C79.8236 8.21889 80.0073 8.13043 80.188 8.02081C80.3688 7.9112 80.5438 7.77563 80.713 7.61409L80.2515 7.02564C80.0169 7.24102 79.7544 7.40929 79.464 7.53044C79.1736 7.65159 78.8592 7.71217 78.5207 7.71217C78.2746 7.71217 78.041 7.67467 77.8198 7.59967C77.5987 7.52467 77.4015 7.41217 77.2285 7.26217C77.0554 7.11218 76.9131 6.9266 76.8016 6.70545C76.69 6.4843 76.6189 6.22566 76.5881 5.92951H80.9669C80.9784 5.83336 80.9842 5.72567 80.9842 5.60644C80.9803 5.19106 80.914 4.8103 80.7851 4.46415C80.6563 4.11801 80.4784 3.8209 80.2515 3.57283C80.0246 3.32475 79.7544 3.13149 79.4409 2.99303C79.1275 2.85457 78.7861 2.78534 78.4169 2.78534C78.0285 2.78534 77.6688 2.85553 77.3381 2.99591C77.0073 3.1363 76.7208 3.33148 76.4785 3.58148C76.2362 3.83147 76.0468 4.13051 75.9102 4.47858C75.7737 4.82665 75.7054 5.21029 75.7054 5.62951C75.7054 6.05258 75.7737 6.43815 75.9102 6.78622C76.0468 7.13429 76.2371 7.43332 76.4814 7.68332C76.7256 7.93331 77.0169 8.12658 77.3554 8.26311C77.6938 8.39965 78.065 8.46792 78.4688 8.46792ZM80.1073 5.23145H76.5996C76.6342 4.9853 76.7006 4.75934 76.7987 4.55358C76.8967 4.34781 77.0217 4.17089 77.1737 4.02282C77.3256 3.87474 77.5044 3.75936 77.7102 3.67667C77.9159 3.59398 78.1458 3.55263 78.3996 3.55263C78.6304 3.55263 78.8448 3.59206 79.0429 3.6709C79.2409 3.74975 79.414 3.86224 79.5621 4.00839C79.7101 4.15454 79.8313 4.33146 79.9255 4.53915C80.0198 4.74684 80.0803 4.9776 80.1073 5.23145ZM83.4476 8.35831V5.30068C83.4476 5.04299 83.4841 4.80934 83.5572 4.59973C83.6303 4.39012 83.7312 4.21127 83.8601 4.0632C83.9889 3.91513 84.1428 3.80071 84.3216 3.71994C84.5004 3.63917 84.6975 3.59879 84.9129 3.59879C85.0745 3.59879 85.2389 3.61706 85.4062 3.65359C85.5735 3.69013 85.7244 3.74494 85.8591 3.81801L86.0667 2.96995C85.9206 2.90457 85.7658 2.85746 85.6023 2.82861C85.4389 2.79976 85.2591 2.78534 85.0629 2.78534C84.7245 2.78534 84.4168 2.8613 84.1399 3.01322C83.8629 3.16514 83.6303 3.38148 83.4418 3.66225V2.89495H82.588V8.35831H83.4476ZM89.4936 8.46792C89.6936 8.46792 89.8917 8.45446 90.0878 8.42754C90.284 8.40061 90.4753 8.3535 90.6618 8.28619C90.8484 8.21889 91.032 8.13043 91.2128 8.02081C91.3936 7.9112 91.5686 7.77563 91.7378 7.61409L91.2763 7.02564C91.0416 7.24102 90.7792 7.40929 90.4888 7.53044C90.1984 7.65159 89.884 7.71217 89.5455 7.71217C89.2994 7.71217 89.0657 7.67467 88.8446 7.59967C88.6234 7.52467 88.4263 7.41217 88.2532 7.26217C88.0802 7.11218 87.9379 6.9266 87.8263 6.70545C87.7148 6.4843 87.6436 6.22566 87.6129 5.92951H91.9916C92.0032 5.83336 92.0089 5.72567 92.0089 5.60644C92.0051 5.19106 91.9387 4.8103 91.8099 4.46415C91.6811 4.11801 91.5032 3.8209 91.2763 3.57283C91.0493 3.32475 90.7792 3.13149 90.4657 2.99303C90.1522 2.85457 89.8109 2.78534 89.4417 2.78534C89.0532 2.78534 88.6936 2.85553 88.3629 2.99591C88.0321 3.1363 87.7456 3.33148 87.5033 3.58148C87.261 3.83147 87.0715 4.13051 86.935 4.47858C86.7985 4.82665 86.7302 5.21029 86.7302 5.62951C86.7302 6.05258 86.7985 6.43815 86.935 6.78622C87.0715 7.13429 87.2619 7.43332 87.5061 7.68332C87.7504 7.93331 88.0417 8.12658 88.3802 8.26311C88.7186 8.39965 89.0898 8.46792 89.4936 8.46792ZM91.132 5.23145H87.6244C87.659 4.9853 87.7254 4.75934 87.8234 4.55358C87.9215 4.34781 88.0465 4.17089 88.1984 4.02282C88.3504 3.87474 88.5292 3.75936 88.735 3.67667C88.9407 3.59398 89.1705 3.55263 89.4244 3.55263C89.6551 3.55263 89.8696 3.59206 90.0676 3.6709C90.2657 3.74975 90.4388 3.86224 90.5868 4.00839C90.7349 4.15454 90.8561 4.33146 90.9503 4.53915C91.0445 4.74684 91.1051 4.9776 91.132 5.23145ZM95.9262 8.46792C96.38 8.46792 96.7713 8.38427 97.1002 8.21696C97.429 8.04966 97.703 7.82562 97.9223 7.54486V8.35831H98.7819V0.0507812H97.9223V3.7084C97.703 3.43148 97.429 3.20841 97.1002 3.03918C96.7713 2.86996 96.38 2.78534 95.9262 2.78534C95.5415 2.78534 95.1829 2.85649 94.8502 2.9988C94.5175 3.1411 94.2291 3.33821 93.9849 3.59013C93.7406 3.84205 93.5483 4.14205 93.408 4.49012C93.2676 4.83818 93.1974 5.21606 93.1974 5.62375C93.1974 6.03528 93.2676 6.41508 93.408 6.76315C93.5483 7.11122 93.7406 7.41121 93.9849 7.66313C94.2291 7.91505 94.5175 8.11216 94.8502 8.25446C95.1829 8.39677 95.5415 8.46792 95.9262 8.46792ZM96.03 7.66024C95.7415 7.66024 95.4771 7.60736 95.2368 7.50159C94.9964 7.39583 94.7896 7.25064 94.6166 7.06602C94.4435 6.88141 94.3098 6.66603 94.2156 6.41988C94.1214 6.17373 94.0743 5.90836 94.0743 5.62375C94.0743 5.34298 94.1214 5.07953 94.2156 4.83338C94.3098 4.58723 94.4425 4.37185 94.6137 4.18724C94.7848 4.00262 94.9906 3.85744 95.231 3.75167C95.4714 3.6459 95.7377 3.59302 96.03 3.59302C96.3146 3.59302 96.5761 3.64494 96.8146 3.74878C97.0531 3.85263 97.2579 3.99493 97.429 4.1757C97.6002 4.35646 97.7338 4.57088 97.83 4.81895C97.9261 5.06703 97.9742 5.33529 97.9742 5.62375C97.9742 5.9122 97.9261 6.18143 97.83 6.43142C97.7338 6.68142 97.6002 6.8968 97.429 7.07756C97.2579 7.25833 97.0531 7.40063 96.8146 7.50448C96.5761 7.60832 96.3146 7.66024 96.03 7.66024ZM106.737 8.46792C107.122 8.46792 107.48 8.39677 107.811 8.25446C108.141 8.11216 108.43 7.91505 108.676 7.66313C108.922 7.41121 109.115 7.11122 109.256 6.76315C109.396 6.41508 109.466 6.03528 109.466 5.62375C109.466 5.21606 109.396 4.83818 109.256 4.49012C109.115 4.14205 108.922 3.84205 108.676 3.59013C108.43 3.33821 108.141 3.1411 107.811 2.9988C107.48 2.85649 107.122 2.78534 106.737 2.78534C106.284 2.78534 105.893 2.86899 105.566 3.0363C105.239 3.2036 104.966 3.42571 104.747 3.70263V0.0507812H103.882V8.35831H104.747V7.55063C104.966 7.82755 105.239 8.04966 105.566 8.21696C105.893 8.38427 106.284 8.46792 106.737 8.46792ZM106.634 7.66024C106.349 7.66024 106.087 7.60832 105.849 7.50448C105.611 7.40063 105.406 7.25833 105.235 7.07756C105.063 6.8968 104.93 6.68142 104.834 6.43142C104.738 6.18143 104.689 5.9122 104.689 5.62375C104.689 5.33529 104.738 5.06703 104.834 4.81895C104.93 4.57088 105.063 4.35646 105.235 4.1757C105.406 3.99493 105.611 3.85263 105.849 3.74878C106.087 3.64494 106.349 3.59302 106.634 3.59302C106.922 3.59302 107.187 3.6459 107.427 3.75167C107.667 3.85744 107.873 4.00262 108.044 4.18724C108.215 4.37185 108.348 4.58723 108.442 4.83338C108.536 5.07953 108.584 5.34298 108.584 5.62375C108.584 5.90836 108.536 6.17373 108.442 6.41988C108.348 6.66603 108.216 6.88141 108.047 7.06602C107.878 7.25064 107.673 7.39583 107.433 7.50159C107.192 7.60736 106.926 7.66024 106.634 7.66024ZM111.434 10.689L115.882 2.89495H114.935L113.009 6.32181L110.972 2.89495H110.009L112.518 7.17564L110.482 10.689H111.434Z" fill="black"/>
</svg>
