<svg width="168" height="38" viewBox="0 0 168 38" fill="none" xmlns="http://www.w3.org/2000/svg">
<path d="M24.525 2.15328C26.1644 2.15328 27.4871 1.65021 28.2591 0.878255H28.7621L30.718 11.2086L29.9417 11.3907C26.984 6.93247 24.1174 4.20027 21.4762 4.20027C19.6591 4.20027 18.9262 5.01993 18.9262 6.29496V31.3749C18.9262 33.3308 19.9757 34.7446 22.0227 35.4732V36.2885H8.98617V35.4732C11.1546 34.7446 12.1737 33.3308 12.1737 31.3749V6.29496C12.1737 5.01993 11.4018 4.20027 9.62368 4.20027C7.02158 4.20027 4.12024 6.93247 1.20589 11.3907L0.3125 11.2086L2.35949 0.878255H2.86256C3.72992 1.65021 4.90954 2.15328 6.63994 2.15328H24.525Z" fill="black"/>
<path d="M34.6472 31.557V8.61517C34.6472 6.38603 33.6931 4.97656 31.8716 4.42579V3.55842C34.9229 3.19014 37.8111 1.97812 40.2114 0.0585938H40.9877V14.7171C40.9877 15.7146 40.94 16.8855 40.8966 17.445L40.9877 17.536C43.3079 15.2158 47.9526 12.167 51.3657 12.167C54.4015 12.167 56.1883 14.2617 56.1883 17.4016V31.557C56.1883 33.3785 57.0079 34.8357 58.4651 35.4602V36.2755H47.1503V35.4732C48.885 34.4714 49.7914 33.3785 49.7914 31.6481V19.7218C49.7914 17.5534 49.0195 16.4432 47.3802 16.3998C45.8753 16.3521 43.5117 17.445 40.9616 19.132V31.6481C40.9616 33.3828 42.0068 34.5147 43.6028 35.4732V36.2885H32.0972V35.4732C32.866 35.1553 33.5208 34.6125 33.9759 33.916C34.4309 33.2195 34.6649 32.4018 34.6472 31.57" fill="black"/>
<path d="M76.3545 31.557H76.2635C73.991 33.8859 69.6194 36.9217 66.1586 36.9217C63.0665 36.9217 61.4272 34.8313 61.4272 31.7175V20.6325C61.4272 18.3557 60.833 16.8552 58.8771 16.2176V15.398C61.8599 15.0393 64.6743 13.8219 66.9783 11.8938H67.6635V29.3713C67.6635 31.6481 68.4355 32.7843 70.1659 32.8407C71.6664 32.9318 73.67 31.7912 76.2635 30.0174V20.9101C76.2635 18.4988 75.717 16.7684 73.6267 16.222V15.398C76.6509 14.9898 79.5109 13.7799 81.91 11.8938H82.6386V29.6011C82.6386 32.2032 83.3195 33.4219 85.2407 34.016V34.8357C82.4204 35.1313 79.6763 35.9319 77.1395 37.1992H76.2721V34.3803C76.2721 33.3308 76.3632 32.1468 76.3632 31.557" fill="black"/>
<path d="M89.2523 31.3749V20.4417C89.2523 17.9394 88.5237 16.7554 86.5201 16.209V15.398C89.5507 15.0084 92.4169 13.7965 94.8078 11.8938H95.6274V14.4959C95.6386 15.439 95.5923 16.3818 95.4887 17.3192L95.6274 17.3626C97.8999 15.0424 102.454 12.1584 105.958 12.1584C109.098 12.1584 110.785 14.2487 110.785 17.3929V31.3749C110.785 33.3785 111.652 34.8443 113.148 35.4688V36.2885H101.872V35.4688C103.559 34.4714 104.514 33.3785 104.514 31.3749V19.7218C104.514 17.5534 103.785 16.4432 102.055 16.3998C100.463 16.3521 98.2772 17.2672 95.6404 18.9498V31.3749C95.6404 33.3785 96.6856 34.4714 98.2772 35.4688V36.2885H86.5201V35.4688C87.3469 35.1586 88.0555 34.5966 88.5457 33.862C89.036 33.1275 89.2831 32.2575 89.2523 31.3749Z" fill="black"/>
<path d="M124.84 36.9737C119.333 36.9737 113.734 33.0142 113.734 25.2643C113.734 18.0738 118.743 12.1584 125.526 12.1584C130.986 12.1584 135.127 16.0268 135.127 21.7601V23.0004H119.606C119.745 29.6445 123.249 32.741 127.616 32.741C128.918 32.743 130.201 32.4191 131.346 31.7987C132.491 31.1783 133.463 30.2812 134.173 29.1891L134.902 29.6228C133.536 34.3109 129.264 36.9954 124.84 36.9954M119.697 20.9491H128.618C128.618 16.9896 127.026 14.4439 124.433 14.4439C122.156 14.4439 120.096 16.4475 119.697 20.9491Z" fill="black"/>
<path d="M145.961 36.9217C142.722 36.8773 139.507 36.3556 136.42 35.3734L139.425 28.4345H139.959C140.826 32.715 144.326 34.6275 147.739 34.6275C150.562 34.6275 152.249 33.3264 152.249 31.531C152.249 29.4797 150.016 28.3911 147.24 27.4804C143.098 26.0666 138.089 24.566 138.089 19.7435C138.089 15.4066 142.097 12.141 148.194 12.141C150.627 12.1419 153.048 12.479 155.389 13.1428L153.242 19.3141H152.609C152.323 17.888 151.547 16.6068 150.416 15.6921C149.286 14.7774 147.87 14.2868 146.416 14.3051C144.096 14.3051 142.639 15.489 142.639 17.0807C142.639 19.5396 146.052 20.4938 149.465 21.7254C153.151 23.0004 156.794 24.7612 156.794 28.9636C156.794 33.6474 152.288 36.926 145.952 36.926" fill="black"/>
<path d="M158.945 32.5588C158.942 31.9911 159.053 31.4285 159.27 30.9041C159.488 30.3798 159.808 29.9042 160.212 29.5054C160.616 29.1066 161.096 28.7926 161.623 28.5819C162.15 28.3711 162.714 28.268 163.282 28.2784C163.838 28.2784 164.388 28.3879 164.902 28.6006C165.415 28.8133 165.882 29.1251 166.275 29.5181C166.668 29.9112 166.98 30.3778 167.193 30.8913C167.405 31.4049 167.515 31.9553 167.515 32.5111C167.515 33.067 167.405 33.6174 167.193 34.1309C166.98 34.6445 166.668 35.1111 166.275 35.5041C165.882 35.8972 165.415 36.209 164.902 36.4217C164.388 36.6344 163.838 36.7439 163.282 36.7439C162.722 36.7571 162.164 36.659 161.642 36.4553C161.12 36.2515 160.643 35.9462 160.24 35.5569C159.836 35.1677 159.514 34.7022 159.292 34.1876C159.07 33.673 158.952 33.1193 158.945 32.5588Z" fill="black"/>
</svg>
