<svg width="194" height="38" viewBox="0 0 194 38" fill="none" xmlns="http://www.w3.org/2000/svg">
<path d="M28.427 23.6655C31.009 24.0729 33.6476 23.4484 35.773 21.9268L38.7342 26.067C37.7073 27.2515 33.2356 29.3814 28.7748 29.3814C15.9737 29.7563 17.7395 17.8191 17.7395 17.8191C17.9134 15.1731 20.9996 4.94195 33.3008 5.63199C45.4988 6.31117 40.8587 19.6936 40.8587 19.6936H24.1238C24.1238 19.6936 23.939 23.0406 28.427 23.6655ZM25.1235 14.8579H35.8436C35.8436 14.8579 36.1914 11.2719 31.1111 11.2719C29.8784 11.2536 28.6649 11.5796 27.6072 12.2131C26.5494 12.8465 25.6893 13.7625 25.1235 14.8579Z" fill="black"/>
<path d="M52.1384 6.27857H46.0204L42.0214 28.9413H48.6502L50.6605 17.2051C50.8693 15.9491 51.4352 14.7796 52.2906 13.8364C53.0614 12.9851 54.0612 12.374 55.1703 12.076C58.5933 11.1578 60.2722 12.9671 60.2722 12.9671L63.9833 7.79992C63.3461 7.12221 62.574 6.58547 61.7168 6.22425C60.8596 5.86302 59.9363 5.68534 59.0063 5.70262C55.7462 5.70262 53.7413 7.22941 52.2525 8.71817L52.1384 6.27857Z" fill="black"/>
<path d="M72.6713 6.27857H66.5533L62.5597 28.9413H69.183L71.1934 17.2051C71.4045 15.9498 71.9701 14.781 72.8234 13.8364C73.5942 12.9851 74.594 12.374 75.7031 12.076C79.1262 11.1578 80.8105 12.9671 80.8105 12.9671L84.5161 7.79992C83.8795 7.1229 83.1084 6.58655 82.2522 6.22536C81.396 5.86416 80.4737 5.6861 79.5445 5.70262C76.2845 5.70262 74.285 7.22941 72.7962 8.71817L72.6713 6.27857Z" fill="black"/>
<path d="M103.517 6.27857H109.798L105.663 28.9359H99.8111L99.8655 26.1431C97.0727 28.9359 94.3886 29.3814 91.4383 29.3814C85.3691 29.3271 81.8809 24.3881 82.6307 17.7322C83.0046 14.6187 84.4441 11.7305 86.7051 9.55763C88.9661 7.38477 91.9093 6.06112 95.0352 5.81129C101.512 5.36575 102.87 8.81053 102.87 8.81053L103.517 6.27857ZM101.343 17.3247C101.343 17.3247 102.224 11.5979 96.3609 11.5707C89.9332 11.5381 89.2975 17.9332 89.2975 17.9332C89.2975 17.9332 88.363 23.6274 94.6005 23.5622C100.566 23.497 101.338 17.3247 101.338 17.3247H101.343Z" fill="black"/>
<path d="M13.1266 6.24597C13.7405 2.79032 14.2133 0.0410156 14.2133 0.0410156L7.52473 0.769092L6.56845 6.24597H1.04267L0.216797 11.6957H5.6176L3.98758 21.1118C3.98758 21.1118 3.31927 24.9532 4.63416 26.7462C5.94904 28.5392 8.40494 30.5876 16.0117 28.3762L15.501 22.9428C15.501 22.9428 11.2194 24.6978 10.6109 22.1387C10.4628 21.3864 10.4963 20.6097 10.7087 19.8729C10.7956 19.4709 10.9912 18.2429 11.5726 14.9829L10.3012 11.7609H14.8544C16.3988 11.7657 17.8947 11.2223 19.0758 10.2272C20.2569 9.23221 21.0465 7.85024 21.3038 6.32747H13.1537L13.1266 6.24597Z" fill="black"/>
<path d="M11.5617 14.9177L0.216797 11.6957H10.2903L11.5617 14.9177Z" fill="black"/>
<path d="M132.031 6.96861C133.528 7.78278 134.767 9.00076 135.606 10.484C136.525 12.1446 136.982 14.0205 136.932 15.9174C136.967 18.2723 136.394 20.5965 135.27 22.6657C134.215 24.6241 132.645 26.2569 130.73 27.3879C128.815 28.5188 126.627 29.1048 124.403 29.0826C120.951 29.0826 118.511 27.9597 117.084 25.7139L114.862 36.8741H108.287L114.427 6.0884H120.654L120.192 8.31609C122.087 6.59778 124.573 5.67885 127.13 5.75153C128.84 5.73832 130.526 6.15695 132.031 6.96861ZM127.087 22.682C128.103 22.0424 128.919 21.1315 129.445 20.0523C130.024 18.8463 130.313 17.5213 130.287 16.1837C130.321 15.5146 130.217 14.8457 129.981 14.2186C129.746 13.5914 129.384 13.0193 128.918 12.5379C128.405 12.0719 127.805 11.7131 127.152 11.4826C126.499 11.2521 125.806 11.1546 125.115 11.1958C123.912 11.1795 122.73 11.5075 121.708 12.1412C120.692 12.7798 119.877 13.6911 119.355 14.771C118.776 15.9769 118.487 17.3019 118.513 18.6396C118.476 19.3087 118.577 19.9783 118.809 20.6071C119.041 21.2359 119.398 21.8107 119.86 22.2962C120.37 22.7671 120.97 23.1294 121.624 23.3611C122.277 23.5927 122.972 23.6889 123.664 23.6437C124.873 23.6544 126.06 23.3208 127.087 22.682Z" fill="black"/>
<path d="M165.572 6.0884L161.073 28.7185H154.846L155.27 26.4854C153.665 27.8754 151.677 28.7478 149.567 28.9882C147.457 29.2287 145.324 28.826 143.447 27.8329C141.96 27.0151 140.729 25.7998 139.893 24.3229C138.98 22.67 138.523 20.8044 138.568 18.9167C138.533 16.5618 139.106 14.2376 140.23 12.1684C141.284 10.2193 142.844 8.59011 144.745 7.45218C146.654 6.3169 148.838 5.72855 151.059 5.75153C154.529 5.75153 156.981 6.88711 158.416 9.15827L159.008 6.0884H165.572ZM153.797 22.682C154.815 22.0444 155.632 21.133 156.156 20.0523C156.735 18.8463 157.023 17.5213 156.998 16.1837C157.029 15.5134 156.923 14.8439 156.684 14.2166C156.446 13.5894 156.081 13.018 155.612 12.5379C155.1 12.0714 154.5 11.7122 153.846 11.4817C153.193 11.2512 152.5 11.154 151.809 11.1958C150.6 11.17 149.41 11.4937 148.38 12.1278C147.351 12.762 146.527 13.6798 146.006 14.771C145.424 15.976 145.135 17.3017 145.164 18.6396C145.128 19.31 145.23 19.9807 145.465 20.6099C145.7 21.239 146.061 21.813 146.528 22.2962C147.04 22.7627 147.64 23.1221 148.293 23.3535C148.946 23.5849 149.639 23.6836 150.331 23.6437C151.555 23.6618 152.758 23.328 153.797 22.682Z" fill="black"/>
<path d="M193.249 6.0884L178.188 30.229C176.562 32.8624 174.986 34.6862 173.461 35.7005C171.779 36.7488 169.824 37.2745 167.843 37.2109C166.666 37.2119 165.496 37.0286 164.376 36.6676C163.394 36.3862 162.483 35.8991 161.703 35.2386L164.729 30.5279C165.711 31.4406 167.008 31.9373 168.348 31.9134C169.12 31.9287 169.878 31.7088 170.521 31.2831C171.287 30.6883 171.929 29.9501 172.412 29.1097L172.624 28.7294L167.408 6.06123H173.966L177.346 21.4812L186.767 6.0884H193.249Z" fill="black"/>
</svg>
